<svg xmlns="http://www.w3.org/2000/svg" xmlns:xlink="http://www.w3.org/1999/xlink" width="500" zoomAndPan="magnify" viewBox="0 0 375 374.999991" height="500" preserveAspectRatio="xMidYMid meet" version="1.0"><defs><g/><clipPath id="e53cce0c30"><path d="M 125.460938 155 L 245.894531 155 L 245.894531 159 L 125.460938 159 Z M 125.460938 155 " clip-rule="nonzero"/></clipPath><clipPath id="339f49b7f7"><path d="M 168.855469 98.578125 C 168.855469 98.578125 151.550781 95.394531 150.535156 92.25 C 149.523438 89.109375 150.332031 83.332031 150.332031 83.332031 L 156.820312 75.933594 C 156.820312 75.933594 167.664062 74.71875 169.386719 76.746094 C 171.109375 78.769531 178.8125 80.898438 180.433594 82.015625 C 182.054688 83.128906 185.703125 81.203125 187.527344 81.609375 C 189.351562 82.015625 192.394531 85.359375 193.914062 86.171875 C 195.433594 86.980469 194.722656 86.375 199.386719 83.839844 C 204.046875 81.304688 215.097656 78.972656 219.148438 78.164062 C 223.203125 77.351562 229.082031 79.988281 228.472656 84.246094 C 227.863281 88.5 226.648438 95.898438 223.710938 96.101562 C 220.769531 96.304688 213.984375 99.992188 213.984375 99.992188 C 213.984375 99.992188 225.433594 106.441406 231.917969 114.546875 C 238.40625 122.65625 247.242188 132.246094 245.601562 134.730469 C 243.960938 137.214844 244.488281 142.519531 243.472656 144.34375 C 242.460938 146.167969 241.945312 142.546875 239.667969 146.6875 C 237.390625 150.832031 233.757812 158.789062 229.105469 159.296875 C 224.449219 159.804688 201.109375 160.558594 201.109375 160.558594 L 155.097656 160.761719 C 155.097656 160.761719 139.628906 160.953125 137.460938 154.683594 C 135.296875 148.410156 134.523438 145.761719 133.8125 145.863281 C 133.105469 145.964844 125.703125 139.175781 125.703125 139.175781 L 134.523438 122.046875 C 134.523438 122.046875 142.5 106.445312 153.472656 102.589844 C 164.445312 98.730469 168.855469 98.582031 168.855469 98.582031 Z M 168.855469 98.578125 " clip-rule="evenodd"/></clipPath><clipPath id="528b6c6c63"><path d="M 125.460938 148 L 245.894531 148 L 245.894531 151 L 125.460938 151 Z M 125.460938 148 " clip-rule="nonzero"/></clipPath><clipPath id="12e3e6feac"><path d="M 168.855469 98.578125 C 168.855469 98.578125 151.550781 95.394531 150.535156 92.25 C 149.523438 89.109375 150.332031 83.332031 150.332031 83.332031 L 156.820312 75.933594 C 156.820312 75.933594 167.664062 74.71875 169.386719 76.746094 C 171.109375 78.769531 178.8125 80.898438 180.433594 82.015625 C 182.054688 83.128906 185.703125 81.203125 187.527344 81.609375 C 189.351562 82.015625 192.394531 85.359375 193.914062 86.171875 C 195.433594 86.980469 194.722656 86.375 199.386719 83.839844 C 204.046875 81.304688 215.097656 78.972656 219.148438 78.164062 C 223.203125 77.351562 229.082031 79.988281 228.472656 84.246094 C 227.863281 88.5 226.648438 95.898438 223.710938 96.101562 C 220.769531 96.304688 213.984375 99.992188 213.984375 99.992188 C 213.984375 99.992188 225.433594 106.441406 231.917969 114.546875 C 238.40625 122.65625 247.242188 132.246094 245.601562 134.730469 C 243.960938 137.214844 244.488281 142.519531 243.472656 144.34375 C 242.460938 146.167969 241.945312 142.546875 239.667969 146.6875 C 237.390625 150.832031 233.757812 158.789062 229.105469 159.296875 C 224.449219 159.804688 201.109375 160.558594 201.109375 160.558594 L 155.097656 160.761719 C 155.097656 160.761719 139.628906 160.953125 137.460938 154.683594 C 135.296875 148.410156 134.523438 145.761719 133.8125 145.863281 C 133.105469 145.964844 125.703125 139.175781 125.703125 139.175781 L 134.523438 122.046875 C 134.523438 122.046875 142.5 106.445312 153.472656 102.589844 C 164.445312 98.730469 168.855469 98.582031 168.855469 98.582031 Z M 168.855469 98.578125 " clip-rule="evenodd"/></clipPath><clipPath id="b7d9382c7e"><path d="M 125.460938 140 L 245.894531 140 L 245.894531 143 L 125.460938 143 Z M 125.460938 140 " clip-rule="nonzero"/></clipPath><clipPath id="dd51a3ae84"><path d="M 168.855469 98.578125 C 168.855469 98.578125 151.550781 95.394531 150.535156 92.25 C 149.523438 89.109375 150.332031 83.332031 150.332031 83.332031 L 156.820312 75.933594 C 156.820312 75.933594 167.664062 74.71875 169.386719 76.746094 C 171.109375 78.769531 178.8125 80.898438 180.433594 82.015625 C 182.054688 83.128906 185.703125 81.203125 187.527344 81.609375 C 189.351562 82.015625 192.394531 85.359375 193.914062 86.171875 C 195.433594 86.980469 194.722656 86.375 199.386719 83.839844 C 204.046875 81.304688 215.097656 78.972656 219.148438 78.164062 C 223.203125 77.351562 229.082031 79.988281 228.472656 84.246094 C 227.863281 88.5 226.648438 95.898438 223.710938 96.101562 C 220.769531 96.304688 213.984375 99.992188 213.984375 99.992188 C 213.984375 99.992188 225.433594 106.441406 231.917969 114.546875 C 238.40625 122.65625 247.242188 132.246094 245.601562 134.730469 C 243.960938 137.214844 244.488281 142.519531 243.472656 144.34375 C 242.460938 146.167969 241.945312 142.546875 239.667969 146.6875 C 237.390625 150.832031 233.757812 158.789062 229.105469 159.296875 C 224.449219 159.804688 201.109375 160.558594 201.109375 160.558594 L 155.097656 160.761719 C 155.097656 160.761719 139.628906 160.953125 137.460938 154.683594 C 135.296875 148.410156 134.523438 145.761719 133.8125 145.863281 C 133.105469 145.964844 125.703125 139.175781 125.703125 139.175781 L 134.523438 122.046875 C 134.523438 122.046875 142.5 106.445312 153.472656 102.589844 C 164.445312 98.730469 168.855469 98.582031 168.855469 98.582031 Z M 168.855469 98.578125 " clip-rule="evenodd"/></clipPath><clipPath id="4ac55bdd70"><path d="M 125.460938 132 L 245.894531 132 L 245.894531 135 L 125.460938 135 Z M 125.460938 132 " clip-rule="nonzero"/></clipPath><clipPath id="d6b649e132"><path d="M 168.855469 98.578125 C 168.855469 98.578125 151.550781 95.394531 150.535156 92.25 C 149.523438 89.109375 150.332031 83.332031 150.332031 83.332031 L 156.820312 75.933594 C 156.820312 75.933594 167.664062 74.71875 169.386719 76.746094 C 171.109375 78.769531 178.8125 80.898438 180.433594 82.015625 C 182.054688 83.128906 185.703125 81.203125 187.527344 81.609375 C 189.351562 82.015625 192.394531 85.359375 193.914062 86.171875 C 195.433594 86.980469 194.722656 86.375 199.386719 83.839844 C 204.046875 81.304688 215.097656 78.972656 219.148438 78.164062 C 223.203125 77.351562 229.082031 79.988281 228.472656 84.246094 C 227.863281 88.5 226.648438 95.898438 223.710938 96.101562 C 220.769531 96.304688 213.984375 99.992188 213.984375 99.992188 C 213.984375 99.992188 225.433594 106.441406 231.917969 114.546875 C 238.40625 122.65625 247.242188 132.246094 245.601562 134.730469 C 243.960938 137.214844 244.488281 142.519531 243.472656 144.34375 C 242.460938 146.167969 241.945312 142.546875 239.667969 146.6875 C 237.390625 150.832031 233.757812 158.789062 229.105469 159.296875 C 224.449219 159.804688 201.109375 160.558594 201.109375 160.558594 L 155.097656 160.761719 C 155.097656 160.761719 139.628906 160.953125 137.460938 154.683594 C 135.296875 148.410156 134.523438 145.761719 133.8125 145.863281 C 133.105469 145.964844 125.703125 139.175781 125.703125 139.175781 L 134.523438 122.046875 C 134.523438 122.046875 142.5 106.445312 153.472656 102.589844 C 164.445312 98.730469 168.855469 98.582031 168.855469 98.582031 Z M 168.855469 98.578125 " clip-rule="evenodd"/></clipPath><clipPath id="2b6f4a98c1"><path d="M 125.460938 124 L 245.894531 124 L 245.894531 128 L 125.460938 128 Z M 125.460938 124 " clip-rule="nonzero"/></clipPath><clipPath id="acdf5202ae"><path d="M 168.855469 98.578125 C 168.855469 98.578125 151.550781 95.394531 150.535156 92.25 C 149.523438 89.109375 150.332031 83.332031 150.332031 83.332031 L 156.820312 75.933594 C 156.820312 75.933594 167.664062 74.71875 169.386719 76.746094 C 171.109375 78.769531 178.8125 80.898438 180.433594 82.015625 C 182.054688 83.128906 185.703125 81.203125 187.527344 81.609375 C 189.351562 82.015625 192.394531 85.359375 193.914062 86.171875 C 195.433594 86.980469 194.722656 86.375 199.386719 83.839844 C 204.046875 81.304688 215.097656 78.972656 219.148438 78.164062 C 223.203125 77.351562 229.082031 79.988281 228.472656 84.246094 C 227.863281 88.5 226.648438 95.898438 223.710938 96.101562 C 220.769531 96.304688 213.984375 99.992188 213.984375 99.992188 C 213.984375 99.992188 225.433594 106.441406 231.917969 114.546875 C 238.40625 122.65625 247.242188 132.246094 245.601562 134.730469 C 243.960938 137.214844 244.488281 142.519531 243.472656 144.34375 C 242.460938 146.167969 241.945312 142.546875 239.667969 146.6875 C 237.390625 150.832031 233.757812 158.789062 229.105469 159.296875 C 224.449219 159.804688 201.109375 160.558594 201.109375 160.558594 L 155.097656 160.761719 C 155.097656 160.761719 139.628906 160.953125 137.460938 154.683594 C 135.296875 148.410156 134.523438 145.761719 133.8125 145.863281 C 133.105469 145.964844 125.703125 139.175781 125.703125 139.175781 L 134.523438 122.046875 C 134.523438 122.046875 142.5 106.445312 153.472656 102.589844 C 164.445312 98.730469 168.855469 98.582031 168.855469 98.582031 Z M 168.855469 98.578125 " clip-rule="evenodd"/></clipPath><clipPath id="687f534e53"><path d="M 125.460938 117 L 245.894531 117 L 245.894531 120 L 125.460938 120 Z M 125.460938 117 " clip-rule="nonzero"/></clipPath><clipPath id="619360c54b"><path d="M 168.855469 98.578125 C 168.855469 98.578125 151.550781 95.394531 150.535156 92.25 C 149.523438 89.109375 150.332031 83.332031 150.332031 83.332031 L 156.820312 75.933594 C 156.820312 75.933594 167.664062 74.71875 169.386719 76.746094 C 171.109375 78.769531 178.8125 80.898438 180.433594 82.015625 C 182.054688 83.128906 185.703125 81.203125 187.527344 81.609375 C 189.351562 82.015625 192.394531 85.359375 193.914062 86.171875 C 195.433594 86.980469 194.722656 86.375 199.386719 83.839844 C 204.046875 81.304688 215.097656 78.972656 219.148438 78.164062 C 223.203125 77.351562 229.082031 79.988281 228.472656 84.246094 C 227.863281 88.5 226.648438 95.898438 223.710938 96.101562 C 220.769531 96.304688 213.984375 99.992188 213.984375 99.992188 C 213.984375 99.992188 225.433594 106.441406 231.917969 114.546875 C 238.40625 122.65625 247.242188 132.246094 245.601562 134.730469 C 243.960938 137.214844 244.488281 142.519531 243.472656 144.34375 C 242.460938 146.167969 241.945312 142.546875 239.667969 146.6875 C 237.390625 150.832031 233.757812 158.789062 229.105469 159.296875 C 224.449219 159.804688 201.109375 160.558594 201.109375 160.558594 L 155.097656 160.761719 C 155.097656 160.761719 139.628906 160.953125 137.460938 154.683594 C 135.296875 148.410156 134.523438 145.761719 133.8125 145.863281 C 133.105469 145.964844 125.703125 139.175781 125.703125 139.175781 L 134.523438 122.046875 C 134.523438 122.046875 142.5 106.445312 153.472656 102.589844 C 164.445312 98.730469 168.855469 98.582031 168.855469 98.582031 Z M 168.855469 98.578125 " clip-rule="evenodd"/></clipPath><clipPath id="2526e291af"><path d="M 125.460938 109 L 245.894531 109 L 245.894531 112 L 125.460938 112 Z M 125.460938 109 " clip-rule="nonzero"/></clipPath><clipPath id="35c21eae7d"><path d="M 168.855469 98.578125 C 168.855469 98.578125 151.550781 95.394531 150.535156 92.25 C 149.523438 89.109375 150.332031 83.332031 150.332031 83.332031 L 156.820312 75.933594 C 156.820312 75.933594 167.664062 74.71875 169.386719 76.746094 C 171.109375 78.769531 178.8125 80.898438 180.433594 82.015625 C 182.054688 83.128906 185.703125 81.203125 187.527344 81.609375 C 189.351562 82.015625 192.394531 85.359375 193.914062 86.171875 C 195.433594 86.980469 194.722656 86.375 199.386719 83.839844 C 204.046875 81.304688 215.097656 78.972656 219.148438 78.164062 C 223.203125 77.351562 229.082031 79.988281 228.472656 84.246094 C 227.863281 88.5 226.648438 95.898438 223.710938 96.101562 C 220.769531 96.304688 213.984375 99.992188 213.984375 99.992188 C 213.984375 99.992188 225.433594 106.441406 231.917969 114.546875 C 238.40625 122.65625 247.242188 132.246094 245.601562 134.730469 C 243.960938 137.214844 244.488281 142.519531 243.472656 144.34375 C 242.460938 146.167969 241.945312 142.546875 239.667969 146.6875 C 237.390625 150.832031 233.757812 158.789062 229.105469 159.296875 C 224.449219 159.804688 201.109375 160.558594 201.109375 160.558594 L 155.097656 160.761719 C 155.097656 160.761719 139.628906 160.953125 137.460938 154.683594 C 135.296875 148.410156 134.523438 145.761719 133.8125 145.863281 C 133.105469 145.964844 125.703125 139.175781 125.703125 139.175781 L 134.523438 122.046875 C 134.523438 122.046875 142.5 106.445312 153.472656 102.589844 C 164.445312 98.730469 168.855469 98.582031 168.855469 98.582031 Z M 168.855469 98.578125 " clip-rule="evenodd"/></clipPath><clipPath id="6d67da1fb6"><path d="M 125.460938 101 L 245.894531 101 L 245.894531 104 L 125.460938 104 Z M 125.460938 101 " clip-rule="nonzero"/></clipPath><clipPath id="c53486ad18"><path d="M 168.855469 98.578125 C 168.855469 98.578125 151.550781 95.394531 150.535156 92.25 C 149.523438 89.109375 150.332031 83.332031 150.332031 83.332031 L 156.820312 75.933594 C 156.820312 75.933594 167.664062 74.71875 169.386719 76.746094 C 171.109375 78.769531 178.8125 80.898438 180.433594 82.015625 C 182.054688 83.128906 185.703125 81.203125 187.527344 81.609375 C 189.351562 82.015625 192.394531 85.359375 193.914062 86.171875 C 195.433594 86.980469 194.722656 86.375 199.386719 83.839844 C 204.046875 81.304688 215.097656 78.972656 219.148438 78.164062 C 223.203125 77.351562 229.082031 79.988281 228.472656 84.246094 C 227.863281 88.5 226.648438 95.898438 223.710938 96.101562 C 220.769531 96.304688 213.984375 99.992188 213.984375 99.992188 C 213.984375 99.992188 225.433594 106.441406 231.917969 114.546875 C 238.40625 122.65625 247.242188 132.246094 245.601562 134.730469 C 243.960938 137.214844 244.488281 142.519531 243.472656 144.34375 C 242.460938 146.167969 241.945312 142.546875 239.667969 146.6875 C 237.390625 150.832031 233.757812 158.789062 229.105469 159.296875 C 224.449219 159.804688 201.109375 160.558594 201.109375 160.558594 L 155.097656 160.761719 C 155.097656 160.761719 139.628906 160.953125 137.460938 154.683594 C 135.296875 148.410156 134.523438 145.761719 133.8125 145.863281 C 133.105469 145.964844 125.703125 139.175781 125.703125 139.175781 L 134.523438 122.046875 C 134.523438 122.046875 142.5 106.445312 153.472656 102.589844 C 164.445312 98.730469 168.855469 98.582031 168.855469 98.582031 Z M 168.855469 98.578125 " clip-rule="evenodd"/></clipPath><clipPath id="9fd2fa8490"><path d="M 125.460938 93 L 245.894531 93 L 245.894531 96 L 125.460938 96 Z M 125.460938 93 " clip-rule="nonzero"/></clipPath><clipPath id="df16c7666e"><path d="M 168.855469 98.578125 C 168.855469 98.578125 151.550781 95.394531 150.535156 92.25 C 149.523438 89.109375 150.332031 83.332031 150.332031 83.332031 L 156.820312 75.933594 C 156.820312 75.933594 167.664062 74.71875 169.386719 76.746094 C 171.109375 78.769531 178.8125 80.898438 180.433594 82.015625 C 182.054688 83.128906 185.703125 81.203125 187.527344 81.609375 C 189.351562 82.015625 192.394531 85.359375 193.914062 86.171875 C 195.433594 86.980469 194.722656 86.375 199.386719 83.839844 C 204.046875 81.304688 215.097656 78.972656 219.148438 78.164062 C 223.203125 77.351562 229.082031 79.988281 228.472656 84.246094 C 227.863281 88.5 226.648438 95.898438 223.710938 96.101562 C 220.769531 96.304688 213.984375 99.992188 213.984375 99.992188 C 213.984375 99.992188 225.433594 106.441406 231.917969 114.546875 C 238.40625 122.65625 247.242188 132.246094 245.601562 134.730469 C 243.960938 137.214844 244.488281 142.519531 243.472656 144.34375 C 242.460938 146.167969 241.945312 142.546875 239.667969 146.6875 C 237.390625 150.832031 233.757812 158.789062 229.105469 159.296875 C 224.449219 159.804688 201.109375 160.558594 201.109375 160.558594 L 155.097656 160.761719 C 155.097656 160.761719 139.628906 160.953125 137.460938 154.683594 C 135.296875 148.410156 134.523438 145.761719 133.8125 145.863281 C 133.105469 145.964844 125.703125 139.175781 125.703125 139.175781 L 134.523438 122.046875 C 134.523438 122.046875 142.5 106.445312 153.472656 102.589844 C 164.445312 98.730469 168.855469 98.582031 168.855469 98.582031 Z M 168.855469 98.578125 " clip-rule="evenodd"/></clipPath><clipPath id="8b8f9ec52f"><path d="M 125.460938 85 L 245.894531 85 L 245.894531 89 L 125.460938 89 Z M 125.460938 85 " clip-rule="nonzero"/></clipPath><clipPath id="fb998d23bb"><path d="M 168.855469 98.578125 C 168.855469 98.578125 151.550781 95.394531 150.535156 92.25 C 149.523438 89.109375 150.332031 83.332031 150.332031 83.332031 L 156.820312 75.933594 C 156.820312 75.933594 167.664062 74.71875 169.386719 76.746094 C 171.109375 78.769531 178.8125 80.898438 180.433594 82.015625 C 182.054688 83.128906 185.703125 81.203125 187.527344 81.609375 C 189.351562 82.015625 192.394531 85.359375 193.914062 86.171875 C 195.433594 86.980469 194.722656 86.375 199.386719 83.839844 C 204.046875 81.304688 215.097656 78.972656 219.148438 78.164062 C 223.203125 77.351562 229.082031 79.988281 228.472656 84.246094 C 227.863281 88.5 226.648438 95.898438 223.710938 96.101562 C 220.769531 96.304688 213.984375 99.992188 213.984375 99.992188 C 213.984375 99.992188 225.433594 106.441406 231.917969 114.546875 C 238.40625 122.65625 247.242188 132.246094 245.601562 134.730469 C 243.960938 137.214844 244.488281 142.519531 243.472656 144.34375 C 242.460938 146.167969 241.945312 142.546875 239.667969 146.6875 C 237.390625 150.832031 233.757812 158.789062 229.105469 159.296875 C 224.449219 159.804688 201.109375 160.558594 201.109375 160.558594 L 155.097656 160.761719 C 155.097656 160.761719 139.628906 160.953125 137.460938 154.683594 C 135.296875 148.410156 134.523438 145.761719 133.8125 145.863281 C 133.105469 145.964844 125.703125 139.175781 125.703125 139.175781 L 134.523438 122.046875 C 134.523438 122.046875 142.5 106.445312 153.472656 102.589844 C 164.445312 98.730469 168.855469 98.582031 168.855469 98.582031 Z M 168.855469 98.578125 " clip-rule="evenodd"/></clipPath><clipPath id="785f7e0a73"><path d="M 125.460938 78 L 245.894531 78 L 245.894531 81 L 125.460938 81 Z M 125.460938 78 " clip-rule="nonzero"/></clipPath><clipPath id="81c9fee622"><path d="M 168.855469 98.578125 C 168.855469 98.578125 151.550781 95.394531 150.535156 92.25 C 149.523438 89.109375 150.332031 83.332031 150.332031 83.332031 L 156.820312 75.933594 C 156.820312 75.933594 167.664062 74.71875 169.386719 76.746094 C 171.109375 78.769531 178.8125 80.898438 180.433594 82.015625 C 182.054688 83.128906 185.703125 81.203125 187.527344 81.609375 C 189.351562 82.015625 192.394531 85.359375 193.914062 86.171875 C 195.433594 86.980469 194.722656 86.375 199.386719 83.839844 C 204.046875 81.304688 215.097656 78.972656 219.148438 78.164062 C 223.203125 77.351562 229.082031 79.988281 228.472656 84.246094 C 227.863281 88.5 226.648438 95.898438 223.710938 96.101562 C 220.769531 96.304688 213.984375 99.992188 213.984375 99.992188 C 213.984375 99.992188 225.433594 106.441406 231.917969 114.546875 C 238.40625 122.65625 247.242188 132.246094 245.601562 134.730469 C 243.960938 137.214844 244.488281 142.519531 243.472656 144.34375 C 242.460938 146.167969 241.945312 142.546875 239.667969 146.6875 C 237.390625 150.832031 233.757812 158.789062 229.105469 159.296875 C 224.449219 159.804688 201.109375 160.558594 201.109375 160.558594 L 155.097656 160.761719 C 155.097656 160.761719 139.628906 160.953125 137.460938 154.683594 C 135.296875 148.410156 134.523438 145.761719 133.8125 145.863281 C 133.105469 145.964844 125.703125 139.175781 125.703125 139.175781 L 134.523438 122.046875 C 134.523438 122.046875 142.5 106.445312 153.472656 102.589844 C 164.445312 98.730469 168.855469 98.582031 168.855469 98.582031 Z M 168.855469 98.578125 " clip-rule="evenodd"/></clipPath><clipPath id="085bb7ee00"><path d="M 239 75.453125 L 243 75.453125 L 243 160.816406 L 239 160.816406 Z M 239 75.453125 " clip-rule="nonzero"/></clipPath><clipPath id="3f2268898c"><path d="M 168.855469 98.578125 C 168.855469 98.578125 151.550781 95.394531 150.535156 92.25 C 149.523438 89.109375 150.332031 83.332031 150.332031 83.332031 L 156.820312 75.933594 C 156.820312 75.933594 167.664062 74.71875 169.386719 76.746094 C 171.109375 78.769531 178.8125 80.898438 180.433594 82.015625 C 182.054688 83.128906 185.703125 81.203125 187.527344 81.609375 C 189.351562 82.015625 192.394531 85.359375 193.914062 86.171875 C 195.433594 86.980469 194.722656 86.375 199.386719 83.839844 C 204.046875 81.304688 215.097656 78.972656 219.148438 78.164062 C 223.203125 77.351562 229.082031 79.988281 228.472656 84.246094 C 227.863281 88.5 226.648438 95.898438 223.710938 96.101562 C 220.769531 96.304688 213.984375 99.992188 213.984375 99.992188 C 213.984375 99.992188 225.433594 106.441406 231.917969 114.546875 C 238.40625 122.65625 247.242188 132.246094 245.601562 134.730469 C 243.960938 137.214844 244.488281 142.519531 243.472656 144.34375 C 242.460938 146.167969 241.945312 142.546875 239.667969 146.6875 C 237.390625 150.832031 233.757812 158.789062 229.105469 159.296875 C 224.449219 159.804688 201.109375 160.558594 201.109375 160.558594 L 155.097656 160.761719 C 155.097656 160.761719 139.628906 160.953125 137.460938 154.683594 C 135.296875 148.410156 134.523438 145.761719 133.8125 145.863281 C 133.105469 145.964844 125.703125 139.175781 125.703125 139.175781 L 134.523438 122.046875 C 134.523438 122.046875 142.5 106.445312 153.472656 102.589844 C 164.445312 98.730469 168.855469 98.582031 168.855469 98.582031 Z M 168.855469 98.578125 " clip-rule="evenodd"/></clipPath><clipPath id="d5d024f9c7"><path d="M 231 75.453125 L 235 75.453125 L 235 160.816406 L 231 160.816406 Z M 231 75.453125 " clip-rule="nonzero"/></clipPath><clipPath id="c40d0db4b3"><path d="M 168.855469 98.578125 C 168.855469 98.578125 151.550781 95.394531 150.535156 92.25 C 149.523438 89.109375 150.332031 83.332031 150.332031 83.332031 L 156.820312 75.933594 C 156.820312 75.933594 167.664062 74.71875 169.386719 76.746094 C 171.109375 78.769531 178.8125 80.898438 180.433594 82.015625 C 182.054688 83.128906 185.703125 81.203125 187.527344 81.609375 C 189.351562 82.015625 192.394531 85.359375 193.914062 86.171875 C 195.433594 86.980469 194.722656 86.375 199.386719 83.839844 C 204.046875 81.304688 215.097656 78.972656 219.148438 78.164062 C 223.203125 77.351562 229.082031 79.988281 228.472656 84.246094 C 227.863281 88.5 226.648438 95.898438 223.710938 96.101562 C 220.769531 96.304688 213.984375 99.992188 213.984375 99.992188 C 213.984375 99.992188 225.433594 106.441406 231.917969 114.546875 C 238.40625 122.65625 247.242188 132.246094 245.601562 134.730469 C 243.960938 137.214844 244.488281 142.519531 243.472656 144.34375 C 242.460938 146.167969 241.945312 142.546875 239.667969 146.6875 C 237.390625 150.832031 233.757812 158.789062 229.105469 159.296875 C 224.449219 159.804688 201.109375 160.558594 201.109375 160.558594 L 155.097656 160.761719 C 155.097656 160.761719 139.628906 160.953125 137.460938 154.683594 C 135.296875 148.410156 134.523438 145.761719 133.8125 145.863281 C 133.105469 145.964844 125.703125 139.175781 125.703125 139.175781 L 134.523438 122.046875 C 134.523438 122.046875 142.5 106.445312 153.472656 102.589844 C 164.445312 98.730469 168.855469 98.582031 168.855469 98.582031 Z M 168.855469 98.578125 " clip-rule="evenodd"/></clipPath><clipPath id="fbcec18bc8"><path d="M 224 75.453125 L 227 75.453125 L 227 160.816406 L 224 160.816406 Z M 224 75.453125 " clip-rule="nonzero"/></clipPath><clipPath id="77c9c0dc06"><path d="M 168.855469 98.578125 C 168.855469 98.578125 151.550781 95.394531 150.535156 92.25 C 149.523438 89.109375 150.332031 83.332031 150.332031 83.332031 L 156.820312 75.933594 C 156.820312 75.933594 167.664062 74.71875 169.386719 76.746094 C 171.109375 78.769531 178.8125 80.898438 180.433594 82.015625 C 182.054688 83.128906 185.703125 81.203125 187.527344 81.609375 C 189.351562 82.015625 192.394531 85.359375 193.914062 86.171875 C 195.433594 86.980469 194.722656 86.375 199.386719 83.839844 C 204.046875 81.304688 215.097656 78.972656 219.148438 78.164062 C 223.203125 77.351562 229.082031 79.988281 228.472656 84.246094 C 227.863281 88.5 226.648438 95.898438 223.710938 96.101562 C 220.769531 96.304688 213.984375 99.992188 213.984375 99.992188 C 213.984375 99.992188 225.433594 106.441406 231.917969 114.546875 C 238.40625 122.65625 247.242188 132.246094 245.601562 134.730469 C 243.960938 137.214844 244.488281 142.519531 243.472656 144.34375 C 242.460938 146.167969 241.945312 142.546875 239.667969 146.6875 C 237.390625 150.832031 233.757812 158.789062 229.105469 159.296875 C 224.449219 159.804688 201.109375 160.558594 201.109375 160.558594 L 155.097656 160.761719 C 155.097656 160.761719 139.628906 160.953125 137.460938 154.683594 C 135.296875 148.410156 134.523438 145.761719 133.8125 145.863281 C 133.105469 145.964844 125.703125 139.175781 125.703125 139.175781 L 134.523438 122.046875 C 134.523438 122.046875 142.5 106.445312 153.472656 102.589844 C 164.445312 98.730469 168.855469 98.582031 168.855469 98.582031 Z M 168.855469 98.578125 " clip-rule="evenodd"/></clipPath><clipPath id="c2ee9478cd"><path d="M 216 75.453125 L 219 75.453125 L 219 160.816406 L 216 160.816406 Z M 216 75.453125 " clip-rule="nonzero"/></clipPath><clipPath id="2db03e9984"><path d="M 168.855469 98.578125 C 168.855469 98.578125 151.550781 95.394531 150.535156 92.25 C 149.523438 89.109375 150.332031 83.332031 150.332031 83.332031 L 156.820312 75.933594 C 156.820312 75.933594 167.664062 74.71875 169.386719 76.746094 C 171.109375 78.769531 178.8125 80.898438 180.433594 82.015625 C 182.054688 83.128906 185.703125 81.203125 187.527344 81.609375 C 189.351562 82.015625 192.394531 85.359375 193.914062 86.171875 C 195.433594 86.980469 194.722656 86.375 199.386719 83.839844 C 204.046875 81.304688 215.097656 78.972656 219.148438 78.164062 C 223.203125 77.351562 229.082031 79.988281 228.472656 84.246094 C 227.863281 88.5 226.648438 95.898438 223.710938 96.101562 C 220.769531 96.304688 213.984375 99.992188 213.984375 99.992188 C 213.984375 99.992188 225.433594 106.441406 231.917969 114.546875 C 238.40625 122.65625 247.242188 132.246094 245.601562 134.730469 C 243.960938 137.214844 244.488281 142.519531 243.472656 144.34375 C 242.460938 146.167969 241.945312 142.546875 239.667969 146.6875 C 237.390625 150.832031 233.757812 158.789062 229.105469 159.296875 C 224.449219 159.804688 201.109375 160.558594 201.109375 160.558594 L 155.097656 160.761719 C 155.097656 160.761719 139.628906 160.953125 137.460938 154.683594 C 135.296875 148.410156 134.523438 145.761719 133.8125 145.863281 C 133.105469 145.964844 125.703125 139.175781 125.703125 139.175781 L 134.523438 122.046875 C 134.523438 122.046875 142.5 106.445312 153.472656 102.589844 C 164.445312 98.730469 168.855469 98.582031 168.855469 98.582031 Z M 168.855469 98.578125 " clip-rule="evenodd"/></clipPath><clipPath id="d15259822f"><path d="M 208 75.453125 L 211 75.453125 L 211 160.816406 L 208 160.816406 Z M 208 75.453125 " clip-rule="nonzero"/></clipPath><clipPath id="e8b3014859"><path d="M 168.855469 98.578125 C 168.855469 98.578125 151.550781 95.394531 150.535156 92.25 C 149.523438 89.109375 150.332031 83.332031 150.332031 83.332031 L 156.820312 75.933594 C 156.820312 75.933594 167.664062 74.71875 169.386719 76.746094 C 171.109375 78.769531 178.8125 80.898438 180.433594 82.015625 C 182.054688 83.128906 185.703125 81.203125 187.527344 81.609375 C 189.351562 82.015625 192.394531 85.359375 193.914062 86.171875 C 195.433594 86.980469 194.722656 86.375 199.386719 83.839844 C 204.046875 81.304688 215.097656 78.972656 219.148438 78.164062 C 223.203125 77.351562 229.082031 79.988281 228.472656 84.246094 C 227.863281 88.5 226.648438 95.898438 223.710938 96.101562 C 220.769531 96.304688 213.984375 99.992188 213.984375 99.992188 C 213.984375 99.992188 225.433594 106.441406 231.917969 114.546875 C 238.40625 122.65625 247.242188 132.246094 245.601562 134.730469 C 243.960938 137.214844 244.488281 142.519531 243.472656 144.34375 C 242.460938 146.167969 241.945312 142.546875 239.667969 146.6875 C 237.390625 150.832031 233.757812 158.789062 229.105469 159.296875 C 224.449219 159.804688 201.109375 160.558594 201.109375 160.558594 L 155.097656 160.761719 C 155.097656 160.761719 139.628906 160.953125 137.460938 154.683594 C 135.296875 148.410156 134.523438 145.761719 133.8125 145.863281 C 133.105469 145.964844 125.703125 139.175781 125.703125 139.175781 L 134.523438 122.046875 C 134.523438 122.046875 142.5 106.445312 153.472656 102.589844 C 164.445312 98.730469 168.855469 98.582031 168.855469 98.582031 Z M 168.855469 98.578125 " clip-rule="evenodd"/></clipPath><clipPath id="b1ea418581"><path d="M 200 75.453125 L 204 75.453125 L 204 160.816406 L 200 160.816406 Z M 200 75.453125 " clip-rule="nonzero"/></clipPath><clipPath id="b67a04711b"><path d="M 168.855469 98.578125 C 168.855469 98.578125 151.550781 95.394531 150.535156 92.25 C 149.523438 89.109375 150.332031 83.332031 150.332031 83.332031 L 156.820312 75.933594 C 156.820312 75.933594 167.664062 74.71875 169.386719 76.746094 C 171.109375 78.769531 178.8125 80.898438 180.433594 82.015625 C 182.054688 83.128906 185.703125 81.203125 187.527344 81.609375 C 189.351562 82.015625 192.394531 85.359375 193.914062 86.171875 C 195.433594 86.980469 194.722656 86.375 199.386719 83.839844 C 204.046875 81.304688 215.097656 78.972656 219.148438 78.164062 C 223.203125 77.351562 229.082031 79.988281 228.472656 84.246094 C 227.863281 88.5 226.648438 95.898438 223.710938 96.101562 C 220.769531 96.304688 213.984375 99.992188 213.984375 99.992188 C 213.984375 99.992188 225.433594 106.441406 231.917969 114.546875 C 238.40625 122.65625 247.242188 132.246094 245.601562 134.730469 C 243.960938 137.214844 244.488281 142.519531 243.472656 144.34375 C 242.460938 146.167969 241.945312 142.546875 239.667969 146.6875 C 237.390625 150.832031 233.757812 158.789062 229.105469 159.296875 C 224.449219 159.804688 201.109375 160.558594 201.109375 160.558594 L 155.097656 160.761719 C 155.097656 160.761719 139.628906 160.953125 137.460938 154.683594 C 135.296875 148.410156 134.523438 145.761719 133.8125 145.863281 C 133.105469 145.964844 125.703125 139.175781 125.703125 139.175781 L 134.523438 122.046875 C 134.523438 122.046875 142.5 106.445312 153.472656 102.589844 C 164.445312 98.730469 168.855469 98.582031 168.855469 98.582031 Z M 168.855469 98.578125 " clip-rule="evenodd"/></clipPath><clipPath id="029a8bd8ee"><path d="M 193 75.453125 L 196 75.453125 L 196 160.816406 L 193 160.816406 Z M 193 75.453125 " clip-rule="nonzero"/></clipPath><clipPath id="45fc7eb45c"><path d="M 168.855469 98.578125 C 168.855469 98.578125 151.550781 95.394531 150.535156 92.25 C 149.523438 89.109375 150.332031 83.332031 150.332031 83.332031 L 156.820312 75.933594 C 156.820312 75.933594 167.664062 74.71875 169.386719 76.746094 C 171.109375 78.769531 178.8125 80.898438 180.433594 82.015625 C 182.054688 83.128906 185.703125 81.203125 187.527344 81.609375 C 189.351562 82.015625 192.394531 85.359375 193.914062 86.171875 C 195.433594 86.980469 194.722656 86.375 199.386719 83.839844 C 204.046875 81.304688 215.097656 78.972656 219.148438 78.164062 C 223.203125 77.351562 229.082031 79.988281 228.472656 84.246094 C 227.863281 88.5 226.648438 95.898438 223.710938 96.101562 C 220.769531 96.304688 213.984375 99.992188 213.984375 99.992188 C 213.984375 99.992188 225.433594 106.441406 231.917969 114.546875 C 238.40625 122.65625 247.242188 132.246094 245.601562 134.730469 C 243.960938 137.214844 244.488281 142.519531 243.472656 144.34375 C 242.460938 146.167969 241.945312 142.546875 239.667969 146.6875 C 237.390625 150.832031 233.757812 158.789062 229.105469 159.296875 C 224.449219 159.804688 201.109375 160.558594 201.109375 160.558594 L 155.097656 160.761719 C 155.097656 160.761719 139.628906 160.953125 137.460938 154.683594 C 135.296875 148.410156 134.523438 145.761719 133.8125 145.863281 C 133.105469 145.964844 125.703125 139.175781 125.703125 139.175781 L 134.523438 122.046875 C 134.523438 122.046875 142.5 106.445312 153.472656 102.589844 C 164.445312 98.730469 168.855469 98.582031 168.855469 98.582031 Z M 168.855469 98.578125 " clip-rule="evenodd"/></clipPath><clipPath id="55dfad4131"><path d="M 185 75.453125 L 188 75.453125 L 188 160.816406 L 185 160.816406 Z M 185 75.453125 " clip-rule="nonzero"/></clipPath><clipPath id="7ce7b9a2a3"><path d="M 168.855469 98.578125 C 168.855469 98.578125 151.550781 95.394531 150.535156 92.25 C 149.523438 89.109375 150.332031 83.332031 150.332031 83.332031 L 156.820312 75.933594 C 156.820312 75.933594 167.664062 74.71875 169.386719 76.746094 C 171.109375 78.769531 178.8125 80.898438 180.433594 82.015625 C 182.054688 83.128906 185.703125 81.203125 187.527344 81.609375 C 189.351562 82.015625 192.394531 85.359375 193.914062 86.171875 C 195.433594 86.980469 194.722656 86.375 199.386719 83.839844 C 204.046875 81.304688 215.097656 78.972656 219.148438 78.164062 C 223.203125 77.351562 229.082031 79.988281 228.472656 84.246094 C 227.863281 88.5 226.648438 95.898438 223.710938 96.101562 C 220.769531 96.304688 213.984375 99.992188 213.984375 99.992188 C 213.984375 99.992188 225.433594 106.441406 231.917969 114.546875 C 238.40625 122.65625 247.242188 132.246094 245.601562 134.730469 C 243.960938 137.214844 244.488281 142.519531 243.472656 144.34375 C 242.460938 146.167969 241.945312 142.546875 239.667969 146.6875 C 237.390625 150.832031 233.757812 158.789062 229.105469 159.296875 C 224.449219 159.804688 201.109375 160.558594 201.109375 160.558594 L 155.097656 160.761719 C 155.097656 160.761719 139.628906 160.953125 137.460938 154.683594 C 135.296875 148.410156 134.523438 145.761719 133.8125 145.863281 C 133.105469 145.964844 125.703125 139.175781 125.703125 139.175781 L 134.523438 122.046875 C 134.523438 122.046875 142.5 106.445312 153.472656 102.589844 C 164.445312 98.730469 168.855469 98.582031 168.855469 98.582031 Z M 168.855469 98.578125 " clip-rule="evenodd"/></clipPath><clipPath id="3712128aae"><path d="M 177 75.453125 L 180 75.453125 L 180 160.816406 L 177 160.816406 Z M 177 75.453125 " clip-rule="nonzero"/></clipPath><clipPath id="a3ab375c0d"><path d="M 168.855469 98.578125 C 168.855469 98.578125 151.550781 95.394531 150.535156 92.25 C 149.523438 89.109375 150.332031 83.332031 150.332031 83.332031 L 156.820312 75.933594 C 156.820312 75.933594 167.664062 74.71875 169.386719 76.746094 C 171.109375 78.769531 178.8125 80.898438 180.433594 82.015625 C 182.054688 83.128906 185.703125 81.203125 187.527344 81.609375 C 189.351562 82.015625 192.394531 85.359375 193.914062 86.171875 C 195.433594 86.980469 194.722656 86.375 199.386719 83.839844 C 204.046875 81.304688 215.097656 78.972656 219.148438 78.164062 C 223.203125 77.351562 229.082031 79.988281 228.472656 84.246094 C 227.863281 88.5 226.648438 95.898438 223.710938 96.101562 C 220.769531 96.304688 213.984375 99.992188 213.984375 99.992188 C 213.984375 99.992188 225.433594 106.441406 231.917969 114.546875 C 238.40625 122.65625 247.242188 132.246094 245.601562 134.730469 C 243.960938 137.214844 244.488281 142.519531 243.472656 144.34375 C 242.460938 146.167969 241.945312 142.546875 239.667969 146.6875 C 237.390625 150.832031 233.757812 158.789062 229.105469 159.296875 C 224.449219 159.804688 201.109375 160.558594 201.109375 160.558594 L 155.097656 160.761719 C 155.097656 160.761719 139.628906 160.953125 137.460938 154.683594 C 135.296875 148.410156 134.523438 145.761719 133.8125 145.863281 C 133.105469 145.964844 125.703125 139.175781 125.703125 139.175781 L 134.523438 122.046875 C 134.523438 122.046875 142.5 106.445312 153.472656 102.589844 C 164.445312 98.730469 168.855469 98.582031 168.855469 98.582031 Z M 168.855469 98.578125 " clip-rule="evenodd"/></clipPath><clipPath id="1aff1bb693"><path d="M 169 75.453125 L 172 75.453125 L 172 160.816406 L 169 160.816406 Z M 169 75.453125 " clip-rule="nonzero"/></clipPath><clipPath id="e4e224c64f"><path d="M 168.855469 98.578125 C 168.855469 98.578125 151.550781 95.394531 150.535156 92.25 C 149.523438 89.109375 150.332031 83.332031 150.332031 83.332031 L 156.820312 75.933594 C 156.820312 75.933594 167.664062 74.71875 169.386719 76.746094 C 171.109375 78.769531 178.8125 80.898438 180.433594 82.015625 C 182.054688 83.128906 185.703125 81.203125 187.527344 81.609375 C 189.351562 82.015625 192.394531 85.359375 193.914062 86.171875 C 195.433594 86.980469 194.722656 86.375 199.386719 83.839844 C 204.046875 81.304688 215.097656 78.972656 219.148438 78.164062 C 223.203125 77.351562 229.082031 79.988281 228.472656 84.246094 C 227.863281 88.5 226.648438 95.898438 223.710938 96.101562 C 220.769531 96.304688 213.984375 99.992188 213.984375 99.992188 C 213.984375 99.992188 225.433594 106.441406 231.917969 114.546875 C 238.40625 122.65625 247.242188 132.246094 245.601562 134.730469 C 243.960938 137.214844 244.488281 142.519531 243.472656 144.34375 C 242.460938 146.167969 241.945312 142.546875 239.667969 146.6875 C 237.390625 150.832031 233.757812 158.789062 229.105469 159.296875 C 224.449219 159.804688 201.109375 160.558594 201.109375 160.558594 L 155.097656 160.761719 C 155.097656 160.761719 139.628906 160.953125 137.460938 154.683594 C 135.296875 148.410156 134.523438 145.761719 133.8125 145.863281 C 133.105469 145.964844 125.703125 139.175781 125.703125 139.175781 L 134.523438 122.046875 C 134.523438 122.046875 142.5 106.445312 153.472656 102.589844 C 164.445312 98.730469 168.855469 98.582031 168.855469 98.582031 Z M 168.855469 98.578125 " clip-rule="evenodd"/></clipPath><clipPath id="8f84bf02aa"><path d="M 161 75.453125 L 165 75.453125 L 165 160.816406 L 161 160.816406 Z M 161 75.453125 " clip-rule="nonzero"/></clipPath><clipPath id="a197563595"><path d="M 168.855469 98.578125 C 168.855469 98.578125 151.550781 95.394531 150.535156 92.25 C 149.523438 89.109375 150.332031 83.332031 150.332031 83.332031 L 156.820312 75.933594 C 156.820312 75.933594 167.664062 74.71875 169.386719 76.746094 C 171.109375 78.769531 178.8125 80.898438 180.433594 82.015625 C 182.054688 83.128906 185.703125 81.203125 187.527344 81.609375 C 189.351562 82.015625 192.394531 85.359375 193.914062 86.171875 C 195.433594 86.980469 194.722656 86.375 199.386719 83.839844 C 204.046875 81.304688 215.097656 78.972656 219.148438 78.164062 C 223.203125 77.351562 229.082031 79.988281 228.472656 84.246094 C 227.863281 88.5 226.648438 95.898438 223.710938 96.101562 C 220.769531 96.304688 213.984375 99.992188 213.984375 99.992188 C 213.984375 99.992188 225.433594 106.441406 231.917969 114.546875 C 238.40625 122.65625 247.242188 132.246094 245.601562 134.730469 C 243.960938 137.214844 244.488281 142.519531 243.472656 144.34375 C 242.460938 146.167969 241.945312 142.546875 239.667969 146.6875 C 237.390625 150.832031 233.757812 158.789062 229.105469 159.296875 C 224.449219 159.804688 201.109375 160.558594 201.109375 160.558594 L 155.097656 160.761719 C 155.097656 160.761719 139.628906 160.953125 137.460938 154.683594 C 135.296875 148.410156 134.523438 145.761719 133.8125 145.863281 C 133.105469 145.964844 125.703125 139.175781 125.703125 139.175781 L 134.523438 122.046875 C 134.523438 122.046875 142.5 106.445312 153.472656 102.589844 C 164.445312 98.730469 168.855469 98.582031 168.855469 98.582031 Z M 168.855469 98.578125 " clip-rule="evenodd"/></clipPath><clipPath id="a2ed1448cf"><path d="M 154 75.453125 L 157 75.453125 L 157 160.816406 L 154 160.816406 Z M 154 75.453125 " clip-rule="nonzero"/></clipPath><clipPath id="dfda19f1cf"><path d="M 168.855469 98.578125 C 168.855469 98.578125 151.550781 95.394531 150.535156 92.25 C 149.523438 89.109375 150.332031 83.332031 150.332031 83.332031 L 156.820312 75.933594 C 156.820312 75.933594 167.664062 74.71875 169.386719 76.746094 C 171.109375 78.769531 178.8125 80.898438 180.433594 82.015625 C 182.054688 83.128906 185.703125 81.203125 187.527344 81.609375 C 189.351562 82.015625 192.394531 85.359375 193.914062 86.171875 C 195.433594 86.980469 194.722656 86.375 199.386719 83.839844 C 204.046875 81.304688 215.097656 78.972656 219.148438 78.164062 C 223.203125 77.351562 229.082031 79.988281 228.472656 84.246094 C 227.863281 88.5 226.648438 95.898438 223.710938 96.101562 C 220.769531 96.304688 213.984375 99.992188 213.984375 99.992188 C 213.984375 99.992188 225.433594 106.441406 231.917969 114.546875 C 238.40625 122.65625 247.242188 132.246094 245.601562 134.730469 C 243.960938 137.214844 244.488281 142.519531 243.472656 144.34375 C 242.460938 146.167969 241.945312 142.546875 239.667969 146.6875 C 237.390625 150.832031 233.757812 158.789062 229.105469 159.296875 C 224.449219 159.804688 201.109375 160.558594 201.109375 160.558594 L 155.097656 160.761719 C 155.097656 160.761719 139.628906 160.953125 137.460938 154.683594 C 135.296875 148.410156 134.523438 145.761719 133.8125 145.863281 C 133.105469 145.964844 125.703125 139.175781 125.703125 139.175781 L 134.523438 122.046875 C 134.523438 122.046875 142.5 106.445312 153.472656 102.589844 C 164.445312 98.730469 168.855469 98.582031 168.855469 98.582031 Z M 168.855469 98.578125 " clip-rule="evenodd"/></clipPath><clipPath id="d5480f0426"><path d="M 146 75.453125 L 149 75.453125 L 149 160.816406 L 146 160.816406 Z M 146 75.453125 " clip-rule="nonzero"/></clipPath><clipPath id="e0b270c3cd"><path d="M 168.855469 98.578125 C 168.855469 98.578125 151.550781 95.394531 150.535156 92.25 C 149.523438 89.109375 150.332031 83.332031 150.332031 83.332031 L 156.820312 75.933594 C 156.820312 75.933594 167.664062 74.71875 169.386719 76.746094 C 171.109375 78.769531 178.8125 80.898438 180.433594 82.015625 C 182.054688 83.128906 185.703125 81.203125 187.527344 81.609375 C 189.351562 82.015625 192.394531 85.359375 193.914062 86.171875 C 195.433594 86.980469 194.722656 86.375 199.386719 83.839844 C 204.046875 81.304688 215.097656 78.972656 219.148438 78.164062 C 223.203125 77.351562 229.082031 79.988281 228.472656 84.246094 C 227.863281 88.5 226.648438 95.898438 223.710938 96.101562 C 220.769531 96.304688 213.984375 99.992188 213.984375 99.992188 C 213.984375 99.992188 225.433594 106.441406 231.917969 114.546875 C 238.40625 122.65625 247.242188 132.246094 245.601562 134.730469 C 243.960938 137.214844 244.488281 142.519531 243.472656 144.34375 C 242.460938 146.167969 241.945312 142.546875 239.667969 146.6875 C 237.390625 150.832031 233.757812 158.789062 229.105469 159.296875 C 224.449219 159.804688 201.109375 160.558594 201.109375 160.558594 L 155.097656 160.761719 C 155.097656 160.761719 139.628906 160.953125 137.460938 154.683594 C 135.296875 148.410156 134.523438 145.761719 133.8125 145.863281 C 133.105469 145.964844 125.703125 139.175781 125.703125 139.175781 L 134.523438 122.046875 C 134.523438 122.046875 142.5 106.445312 153.472656 102.589844 C 164.445312 98.730469 168.855469 98.582031 168.855469 98.582031 Z M 168.855469 98.578125 " clip-rule="evenodd"/></clipPath><clipPath id="dba08505cb"><path d="M 138 75.453125 L 141 75.453125 L 141 160.816406 L 138 160.816406 Z M 138 75.453125 " clip-rule="nonzero"/></clipPath><clipPath id="e6b6a5839b"><path d="M 168.855469 98.578125 C 168.855469 98.578125 151.550781 95.394531 150.535156 92.25 C 149.523438 89.109375 150.332031 83.332031 150.332031 83.332031 L 156.820312 75.933594 C 156.820312 75.933594 167.664062 74.71875 169.386719 76.746094 C 171.109375 78.769531 178.8125 80.898438 180.433594 82.015625 C 182.054688 83.128906 185.703125 81.203125 187.527344 81.609375 C 189.351562 82.015625 192.394531 85.359375 193.914062 86.171875 C 195.433594 86.980469 194.722656 86.375 199.386719 83.839844 C 204.046875 81.304688 215.097656 78.972656 219.148438 78.164062 C 223.203125 77.351562 229.082031 79.988281 228.472656 84.246094 C 227.863281 88.5 226.648438 95.898438 223.710938 96.101562 C 220.769531 96.304688 213.984375 99.992188 213.984375 99.992188 C 213.984375 99.992188 225.433594 106.441406 231.917969 114.546875 C 238.40625 122.65625 247.242188 132.246094 245.601562 134.730469 C 243.960938 137.214844 244.488281 142.519531 243.472656 144.34375 C 242.460938 146.167969 241.945312 142.546875 239.667969 146.6875 C 237.390625 150.832031 233.757812 158.789062 229.105469 159.296875 C 224.449219 159.804688 201.109375 160.558594 201.109375 160.558594 L 155.097656 160.761719 C 155.097656 160.761719 139.628906 160.953125 137.460938 154.683594 C 135.296875 148.410156 134.523438 145.761719 133.8125 145.863281 C 133.105469 145.964844 125.703125 139.175781 125.703125 139.175781 L 134.523438 122.046875 C 134.523438 122.046875 142.5 106.445312 153.472656 102.589844 C 164.445312 98.730469 168.855469 98.582031 168.855469 98.582031 Z M 168.855469 98.578125 " clip-rule="evenodd"/></clipPath><clipPath id="c54cad8588"><path d="M 130 75.453125 L 134 75.453125 L 134 160.816406 L 130 160.816406 Z M 130 75.453125 " clip-rule="nonzero"/></clipPath><clipPath id="0718f5841e"><path d="M 168.855469 98.578125 C 168.855469 98.578125 151.550781 95.394531 150.535156 92.25 C 149.523438 89.109375 150.332031 83.332031 150.332031 83.332031 L 156.820312 75.933594 C 156.820312 75.933594 167.664062 74.71875 169.386719 76.746094 C 171.109375 78.769531 178.8125 80.898438 180.433594 82.015625 C 182.054688 83.128906 185.703125 81.203125 187.527344 81.609375 C 189.351562 82.015625 192.394531 85.359375 193.914062 86.171875 C 195.433594 86.980469 194.722656 86.375 199.386719 83.839844 C 204.046875 81.304688 215.097656 78.972656 219.148438 78.164062 C 223.203125 77.351562 229.082031 79.988281 228.472656 84.246094 C 227.863281 88.5 226.648438 95.898438 223.710938 96.101562 C 220.769531 96.304688 213.984375 99.992188 213.984375 99.992188 C 213.984375 99.992188 225.433594 106.441406 231.917969 114.546875 C 238.40625 122.65625 247.242188 132.246094 245.601562 134.730469 C 243.960938 137.214844 244.488281 142.519531 243.472656 144.34375 C 242.460938 146.167969 241.945312 142.546875 239.667969 146.6875 C 237.390625 150.832031 233.757812 158.789062 229.105469 159.296875 C 224.449219 159.804688 201.109375 160.558594 201.109375 160.558594 L 155.097656 160.761719 C 155.097656 160.761719 139.628906 160.953125 137.460938 154.683594 C 135.296875 148.410156 134.523438 145.761719 133.8125 145.863281 C 133.105469 145.964844 125.703125 139.175781 125.703125 139.175781 L 134.523438 122.046875 C 134.523438 122.046875 142.5 106.445312 153.472656 102.589844 C 164.445312 98.730469 168.855469 98.582031 168.855469 98.582031 Z M 168.855469 98.578125 " clip-rule="evenodd"/></clipPath></defs><rect x="-37.5" width="450" fill="#ffffff" y="-37.499999" height="449.999989" fill-opacity="1"/><rect x="-37.5" width="450" fill="#ffffff" y="-37.499999" height="449.999989" fill-opacity="1"/><path fill="#d0a879" d="M 168.855469 98.578125 C 168.855469 98.578125 151.550781 95.394531 150.535156 92.25 C 149.523438 89.109375 150.332031 83.332031 150.332031 83.332031 L 156.820312 75.933594 C 156.820312 75.933594 167.664062 74.71875 169.386719 76.746094 C 171.109375 78.769531 178.8125 80.898438 180.433594 82.015625 C 182.054688 83.128906 185.703125 81.203125 187.527344 81.609375 C 189.351562 82.015625 192.394531 85.359375 193.914062 86.171875 C 195.433594 86.980469 194.722656 86.375 199.386719 83.839844 C 204.046875 81.304688 215.097656 78.972656 219.148438 78.164062 C 223.203125 77.351562 229.082031 79.988281 228.472656 84.246094 C 227.863281 88.5 226.648438 95.898438 223.710938 96.101562 C 220.769531 96.304688 213.984375 99.992188 213.984375 99.992188 C 213.984375 99.992188 225.433594 106.441406 231.917969 114.546875 C 238.40625 122.65625 247.242188 132.246094 245.601562 134.730469 C 243.960938 137.214844 244.488281 142.519531 243.472656 144.34375 C 242.460938 146.167969 241.945312 142.546875 239.667969 146.6875 C 237.390625 150.832031 233.757812 158.789062 229.105469 159.296875 C 224.449219 159.804688 201.109375 160.558594 201.109375 160.558594 L 155.097656 160.761719 C 155.097656 160.761719 139.628906 160.953125 137.460938 154.683594 C 135.296875 148.410156 134.523438 145.761719 133.8125 145.863281 C 133.105469 145.964844 125.703125 139.175781 125.703125 139.175781 L 134.523438 122.046875 C 134.523438 122.046875 142.5 106.445312 153.472656 102.589844 C 164.445312 98.730469 168.855469 98.582031 168.855469 98.582031 Z M 168.855469 98.578125 " fill-opacity="1" fill-rule="evenodd"/><g clip-path="url(#e53cce0c30)"><g clip-path="url(#339f49b7f7)"><path fill="#a27e4d" d="M 109.179688 158.226562 C 108.546875 158.226562 108.03125 157.710938 108.03125 157.078125 C 108.03125 156.441406 108.546875 155.925781 109.179688 155.925781 L 263.636719 155.925781 C 264.269531 155.925781 264.785156 156.441406 264.785156 157.078125 C 264.785156 157.710938 264.269531 158.226562 263.636719 158.226562 Z M 109.179688 158.226562 " fill-opacity="1" fill-rule="nonzero"/></g></g><g clip-path="url(#528b6c6c63)"><g clip-path="url(#12e3e6feac)"><path fill="#a27e4d" d="M 109.179688 150.445312 C 108.546875 150.445312 108.03125 149.929688 108.03125 149.292969 C 108.03125 148.660156 108.546875 148.144531 109.179688 148.144531 L 263.636719 148.144531 C 264.269531 148.144531 264.785156 148.660156 264.785156 149.292969 C 264.785156 149.929688 264.269531 150.445312 263.636719 150.445312 Z M 109.179688 150.445312 " fill-opacity="1" fill-rule="nonzero"/></g></g><g clip-path="url(#b7d9382c7e)"><g clip-path="url(#dd51a3ae84)"><path fill="#a27e4d" d="M 109.179688 142.660156 C 108.546875 142.660156 108.03125 142.148438 108.03125 141.511719 C 108.03125 140.878906 108.546875 140.363281 109.179688 140.363281 L 263.636719 140.363281 C 264.269531 140.363281 264.785156 140.878906 264.785156 141.511719 C 264.785156 142.148438 264.269531 142.660156 263.636719 142.660156 Z M 109.179688 142.660156 " fill-opacity="1" fill-rule="nonzero"/></g></g><g clip-path="url(#4ac55bdd70)"><g clip-path="url(#d6b649e132)"><path fill="#a27e4d" d="M 109.179688 134.878906 C 108.546875 134.878906 108.03125 134.367188 108.03125 133.730469 C 108.03125 133.097656 108.546875 132.582031 109.179688 132.582031 L 263.636719 132.582031 C 264.269531 132.582031 264.785156 133.097656 264.785156 133.730469 C 264.785156 134.367188 264.269531 134.878906 263.636719 134.878906 Z M 109.179688 134.878906 " fill-opacity="1" fill-rule="nonzero"/></g></g><g clip-path="url(#2b6f4a98c1)"><g clip-path="url(#acdf5202ae)"><path fill="#a27e4d" d="M 109.179688 127.097656 C 108.546875 127.097656 108.03125 126.582031 108.03125 125.949219 C 108.03125 125.316406 108.546875 124.800781 109.179688 124.800781 L 263.636719 124.800781 C 264.269531 124.800781 264.785156 125.316406 264.785156 125.949219 C 264.785156 126.582031 264.269531 127.097656 263.636719 127.097656 Z M 109.179688 127.097656 " fill-opacity="1" fill-rule="nonzero"/></g></g><g clip-path="url(#687f534e53)"><g clip-path="url(#619360c54b)"><path fill="#a27e4d" d="M 109.179688 119.316406 C 108.546875 119.316406 108.03125 118.800781 108.03125 118.167969 C 108.03125 117.535156 108.546875 117.019531 109.179688 117.019531 L 263.636719 117.019531 C 264.269531 117.019531 264.785156 117.535156 264.785156 118.167969 C 264.785156 118.800781 264.269531 119.316406 263.636719 119.316406 Z M 109.179688 119.316406 " fill-opacity="1" fill-rule="nonzero"/></g></g><g clip-path="url(#2526e291af)"><g clip-path="url(#35c21eae7d)"><path fill="#a27e4d" d="M 109.179688 111.535156 C 108.546875 111.535156 108.03125 111.019531 108.03125 110.386719 C 108.03125 109.753906 108.546875 109.238281 109.179688 109.238281 L 263.636719 109.238281 C 264.269531 109.238281 264.785156 109.753906 264.785156 110.386719 C 264.785156 111.019531 264.269531 111.535156 263.636719 111.535156 Z M 109.179688 111.535156 " fill-opacity="1" fill-rule="nonzero"/></g></g><g clip-path="url(#6d67da1fb6)"><g clip-path="url(#c53486ad18)"><path fill="#a27e4d" d="M 109.179688 103.753906 C 108.546875 103.753906 108.03125 103.238281 108.03125 102.605469 C 108.03125 101.972656 108.546875 101.457031 109.179688 101.457031 L 263.636719 101.457031 C 264.269531 101.457031 264.785156 101.972656 264.785156 102.605469 C 264.785156 103.238281 264.269531 103.753906 263.636719 103.753906 Z M 109.179688 103.753906 " fill-opacity="1" fill-rule="nonzero"/></g></g><g clip-path="url(#9fd2fa8490)"><g clip-path="url(#df16c7666e)"><path fill="#a27e4d" d="M 109.179688 95.972656 C 108.546875 95.972656 108.03125 95.457031 108.03125 94.824219 C 108.03125 94.1875 108.546875 93.675781 109.179688 93.675781 L 263.636719 93.675781 C 264.269531 93.675781 264.785156 94.1875 264.785156 94.824219 C 264.785156 95.457031 264.269531 95.972656 263.636719 95.972656 Z M 109.179688 95.972656 " fill-opacity="1" fill-rule="nonzero"/></g></g><g clip-path="url(#8b8f9ec52f)"><g clip-path="url(#fb998d23bb)"><path fill="#a27e4d" d="M 109.179688 88.191406 C 108.546875 88.191406 108.03125 87.675781 108.03125 87.042969 C 108.03125 86.40625 108.546875 85.890625 109.179688 85.890625 L 263.636719 85.890625 C 264.269531 85.890625 264.785156 86.40625 264.785156 87.042969 C 264.785156 87.675781 264.269531 88.191406 263.636719 88.191406 Z M 109.179688 88.191406 " fill-opacity="1" fill-rule="nonzero"/></g></g><g clip-path="url(#785f7e0a73)"><g clip-path="url(#81c9fee622)"><path fill="#a27e4d" d="M 109.179688 80.410156 C 108.546875 80.410156 108.03125 79.894531 108.03125 79.257812 C 108.03125 78.625 108.546875 78.109375 109.179688 78.109375 L 263.636719 78.109375 C 264.269531 78.109375 264.785156 78.625 264.785156 79.257812 C 264.785156 79.894531 264.269531 80.410156 263.636719 80.410156 Z M 109.179688 80.410156 " fill-opacity="1" fill-rule="nonzero"/></g></g><g clip-path="url(#085bb7ee00)"><g clip-path="url(#3f2268898c)"><path fill="#a27e4d" d="M 242.027344 210.957031 C 242.027344 211.59375 241.515625 212.109375 240.878906 212.109375 C 240.246094 212.109375 239.730469 211.59375 239.730469 210.957031 L 239.730469 56.503906 C 239.730469 55.867188 240.246094 55.355469 240.878906 55.355469 C 241.515625 55.355469 242.027344 55.867188 242.027344 56.503906 Z M 242.027344 210.957031 " fill-opacity="1" fill-rule="nonzero"/></g></g><g clip-path="url(#d5d024f9c7)"><g clip-path="url(#c40d0db4b3)"><path fill="#a27e4d" d="M 234.246094 210.957031 C 234.246094 211.59375 233.734375 212.109375 233.097656 212.109375 C 232.464844 212.109375 231.949219 211.59375 231.949219 210.957031 L 231.949219 56.503906 C 231.949219 55.867188 232.464844 55.355469 233.097656 55.355469 C 233.734375 55.355469 234.246094 55.867188 234.246094 56.503906 Z M 234.246094 210.957031 " fill-opacity="1" fill-rule="nonzero"/></g></g><g clip-path="url(#fbcec18bc8)"><g clip-path="url(#77c9c0dc06)"><path fill="#a27e4d" d="M 226.464844 210.957031 C 226.464844 211.59375 225.949219 212.109375 225.316406 212.109375 C 224.683594 212.109375 224.167969 211.59375 224.167969 210.957031 L 224.167969 56.503906 C 224.167969 55.867188 224.683594 55.355469 225.316406 55.355469 C 225.949219 55.355469 226.464844 55.867188 226.464844 56.503906 Z M 226.464844 210.957031 " fill-opacity="1" fill-rule="nonzero"/></g></g><g clip-path="url(#c2ee9478cd)"><g clip-path="url(#2db03e9984)"><path fill="#a27e4d" d="M 218.683594 210.957031 C 218.683594 211.59375 218.167969 212.109375 217.535156 212.109375 C 216.902344 212.109375 216.386719 211.59375 216.386719 210.957031 L 216.386719 56.503906 C 216.386719 55.867188 216.902344 55.355469 217.535156 55.355469 C 218.167969 55.355469 218.683594 55.867188 218.683594 56.503906 Z M 218.683594 210.957031 " fill-opacity="1" fill-rule="nonzero"/></g></g><g clip-path="url(#d15259822f)"><g clip-path="url(#e8b3014859)"><path fill="#a27e4d" d="M 210.902344 210.957031 C 210.902344 211.59375 210.386719 212.109375 209.753906 212.109375 C 209.121094 212.109375 208.605469 211.59375 208.605469 210.957031 L 208.605469 56.503906 C 208.605469 55.867188 209.121094 55.355469 209.753906 55.355469 C 210.386719 55.355469 210.902344 55.867188 210.902344 56.503906 Z M 210.902344 210.957031 " fill-opacity="1" fill-rule="nonzero"/></g></g><g clip-path="url(#b1ea418581)"><g clip-path="url(#b67a04711b)"><path fill="#a27e4d" d="M 203.121094 210.957031 C 203.121094 211.59375 202.605469 212.109375 201.972656 212.109375 C 201.335938 212.109375 200.824219 211.59375 200.824219 210.957031 L 200.824219 56.503906 C 200.824219 55.867188 201.335938 55.355469 201.972656 55.355469 C 202.605469 55.355469 203.121094 55.867188 203.121094 56.503906 Z M 203.121094 210.957031 " fill-opacity="1" fill-rule="nonzero"/></g></g><g clip-path="url(#029a8bd8ee)"><g clip-path="url(#45fc7eb45c)"><path fill="#a27e4d" d="M 195.339844 210.957031 C 195.339844 211.59375 194.824219 212.109375 194.191406 212.109375 C 193.554688 212.109375 193.039062 211.59375 193.039062 210.957031 L 193.039062 56.503906 C 193.039062 55.867188 193.554688 55.355469 194.191406 55.355469 C 194.824219 55.355469 195.339844 55.867188 195.339844 56.503906 Z M 195.339844 210.957031 " fill-opacity="1" fill-rule="nonzero"/></g></g><g clip-path="url(#55dfad4131)"><g clip-path="url(#7ce7b9a2a3)"><path fill="#a27e4d" d="M 187.558594 210.957031 C 187.558594 211.59375 187.042969 212.109375 186.410156 212.109375 C 185.773438 212.109375 185.257812 211.59375 185.257812 210.957031 L 185.257812 56.503906 C 185.257812 55.867188 185.773438 55.355469 186.410156 55.355469 C 187.042969 55.355469 187.558594 55.867188 187.558594 56.503906 Z M 187.558594 210.957031 " fill-opacity="1" fill-rule="nonzero"/></g></g><g clip-path="url(#3712128aae)"><g clip-path="url(#a3ab375c0d)"><path fill="#a27e4d" d="M 179.777344 210.957031 C 179.777344 211.59375 179.261719 212.109375 178.628906 212.109375 C 177.992188 212.109375 177.476562 211.59375 177.476562 210.957031 L 177.476562 56.503906 C 177.476562 55.867188 177.992188 55.355469 178.628906 55.355469 C 179.261719 55.355469 179.777344 55.867188 179.777344 56.503906 Z M 179.777344 210.957031 " fill-opacity="1" fill-rule="nonzero"/></g></g><g clip-path="url(#1aff1bb693)"><g clip-path="url(#e4e224c64f)"><path fill="#a27e4d" d="M 171.996094 210.957031 C 171.996094 211.59375 171.480469 212.109375 170.84375 212.109375 C 170.210938 212.109375 169.695312 211.59375 169.695312 210.957031 L 169.695312 56.503906 C 169.695312 55.867188 170.210938 55.355469 170.84375 55.355469 C 171.480469 55.355469 171.996094 55.867188 171.996094 56.503906 Z M 171.996094 210.957031 " fill-opacity="1" fill-rule="nonzero"/></g></g><g clip-path="url(#8f84bf02aa)"><g clip-path="url(#a197563595)"><path fill="#a27e4d" d="M 164.210938 210.957031 C 164.210938 211.59375 163.699219 212.109375 163.0625 212.109375 C 162.429688 212.109375 161.914062 211.59375 161.914062 210.957031 L 161.914062 56.503906 C 161.914062 55.867188 162.429688 55.355469 163.0625 55.355469 C 163.699219 55.355469 164.210938 55.867188 164.210938 56.503906 Z M 164.210938 210.957031 " fill-opacity="1" fill-rule="nonzero"/></g></g><g clip-path="url(#a2ed1448cf)"><g clip-path="url(#dfda19f1cf)"><path fill="#a27e4d" d="M 156.429688 210.957031 C 156.429688 211.59375 155.917969 212.109375 155.28125 212.109375 C 154.648438 212.109375 154.132812 211.59375 154.132812 210.957031 L 154.132812 56.503906 C 154.132812 55.867188 154.648438 55.355469 155.28125 55.355469 C 155.917969 55.355469 156.429688 55.867188 156.429688 56.503906 Z M 156.429688 210.957031 " fill-opacity="1" fill-rule="nonzero"/></g></g><g clip-path="url(#d5480f0426)"><g clip-path="url(#e0b270c3cd)"><path fill="#a27e4d" d="M 148.648438 210.957031 C 148.648438 211.59375 148.136719 212.109375 147.5 212.109375 C 146.867188 212.109375 146.351562 211.59375 146.351562 210.957031 L 146.351562 56.503906 C 146.351562 55.867188 146.867188 55.355469 147.5 55.355469 C 148.136719 55.355469 148.648438 55.867188 148.648438 56.503906 Z M 148.648438 210.957031 " fill-opacity="1" fill-rule="nonzero"/></g></g><g clip-path="url(#dba08505cb)"><g clip-path="url(#e6b6a5839b)"><path fill="#a27e4d" d="M 140.867188 210.957031 C 140.867188 211.59375 140.351562 212.109375 139.71875 212.109375 C 139.085938 212.109375 138.570312 211.59375 138.570312 210.957031 L 138.570312 56.503906 C 138.570312 55.867188 139.085938 55.355469 139.71875 55.355469 C 140.351562 55.355469 140.867188 55.867188 140.867188 56.503906 Z M 140.867188 210.957031 " fill-opacity="1" fill-rule="nonzero"/></g></g><g clip-path="url(#c54cad8588)"><g clip-path="url(#0718f5841e)"><path fill="#a27e4d" d="M 133.085938 210.957031 C 133.085938 211.59375 132.570312 212.109375 131.9375 212.109375 C 131.304688 212.109375 130.789062 211.59375 130.789062 210.957031 L 130.789062 56.503906 C 130.789062 55.867188 131.304688 55.355469 131.9375 55.355469 C 132.570312 55.355469 133.085938 55.867188 133.085938 56.503906 Z M 133.085938 210.957031 " fill-opacity="1" fill-rule="nonzero"/></g></g><path fill="#3c2732" d="M 202.425781 96.941406 C 210.867188 93.851562 220.375 99.429688 228.539062 107.457031 C 236.503906 115.289062 243.289062 125.523438 246.273438 131.859375 C 246.523438 132.386719 246.746094 132.886719 246.9375 133.347656 C 251.5 144.296875 243.859375 148.324219 240.070312 149.605469 C 239.816406 152 238.292969 155.792969 232.113281 159.445312 C 226.152344 162.96875 212.175781 162.878906 195.511719 162.773438 C 186.460938 162.71875 176.59375 162.65625 166.835938 163.15625 C 152.683594 163.882812 144.046875 162.410156 139.078125 159.351562 C 133.507812 155.925781 132.316406 150.828125 133.3125 144.710938 C 134.261719 138.863281 136.167969 132.289062 139.554688 125.417969 C 142.386719 119.671875 146.261719 113.707031 151.484375 107.785156 C 162.699219 95.070312 182.460938 94.453125 184.414062 94.421875 C 185.339844 94.328125 195.949219 93.324219 202.425781 96.941406 Z M 207.921875 100.671875 C 217.066406 107.378906 237.210938 124.300781 239.75 144.773438 C 242.148438 143.585938 245.109375 140.886719 242.699219 135.105469 C 242.527344 134.691406 242.335938 134.261719 242.125 133.816406 C 239.308594 127.839844 232.882812 118.160156 225.324219 110.726562 C 219.679688 105.175781 213.46875 100.914062 207.921875 100.671875 Z M 235.414062 147.890625 C 234.464844 123.050781 202.871094 102.640625 201.078125 101.5 L 200.894531 101.386719 C 195.761719 97.769531 184.863281 98.988281 184.832031 98.992188 L 184.605469 99 C 184.550781 99 165.335938 99.003906 154.914062 110.820312 C 149.992188 116.398438 146.339844 122.023438 143.664062 127.449219 C 140.503906 133.867188 138.71875 140 137.835938 145.445312 C 137.140625 149.71875 137.878906 153.21875 141.484375 155.4375 C 145.691406 158.027344 153.472656 159.25 166.601562 158.578125 C 176.386719 158.078125 186.371094 158.140625 195.53125 158.199219 C 211.5 158.296875 224.894531 158.382812 229.78125 155.492188 C 236.597656 151.460938 235.535156 148.628906 235.535156 148.621094 C 235.503906 148.515625 235.476562 148.410156 235.453125 148.296875 C 235.429688 148.160156 235.414062 148.023438 235.414062 147.890625 Z M 235.414062 147.890625 " fill-opacity="1" fill-rule="nonzero"/><path fill="#3c2732" d="M 238.253906 145.648438 C 239.484375 145.953125 240.234375 147.195312 239.933594 148.421875 C 239.632812 149.652344 238.390625 150.40625 237.160156 150.101562 C 237.121094 150.09375 224.175781 146.859375 204.691406 149.5 C 194.570312 150.871094 186.703125 151.238281 179.449219 150.777344 C 172.167969 150.316406 165.558594 149.035156 157.953125 147.105469 C 143.910156 143.542969 136.625 148.078125 136.601562 148.089844 C 136.191406 148.335938 135.738281 148.4375 135.296875 148.410156 C 134.40625 148.378906 123.484375 147.820312 124.109375 138.882812 C 124.429688 134.347656 126.078125 132.03125 128.648438 128.421875 C 130.40625 125.949219 132.660156 122.785156 135.207031 117.636719 C 138.511719 110.96875 142.898438 105.683594 148.457031 102.234375 C 153.71875 98.96875 159.972656 97.367188 167.277344 97.8125 C 168.542969 97.886719 169.507812 98.972656 169.433594 100.238281 C 169.359375 101.503906 168.273438 102.464844 167.007812 102.390625 C 160.695312 102.007812 155.339844 103.359375 150.878906 106.128906 C 146.078125 109.109375 142.246094 113.757812 139.320312 119.664062 C 136.609375 125.140625 134.238281 128.472656 132.382812 131.078125 C 130.269531 134.042969 128.914062 135.945312 128.6875 139.1875 C 128.429688 142.894531 133.226562 143.648438 134.917969 143.796875 C 137.261719 142.636719 145.683594 139.257812 159.066406 142.652344 C 166.433594 144.519531 172.800781 145.761719 179.738281 146.199219 C 186.699219 146.640625 194.285156 146.285156 204.082031 144.957031 C 224.4375 142.199219 238.214844 145.640625 238.253906 145.648438 Z M 238.253906 145.648438 " fill-opacity="1" fill-rule="nonzero"/><path fill="#3c2732" d="M 152.578125 91.113281 C 156.304688 96.785156 174.847656 95.554688 174.898438 95.550781 C 174.992188 95.542969 175.085938 95.542969 175.179688 95.550781 L 202.203125 97.210938 C 204.242188 97.070312 229.527344 95.121094 226.113281 84.578125 C 222.507812 73.449219 195.050781 88.453125 194.972656 88.496094 C 194.527344 88.730469 194.003906 88.824219 193.472656 88.730469 C 192.226562 88.5 191.40625 87.304688 191.632812 86.0625 C 191.632812 86.058594 191.960938 84.414062 189.382812 84.367188 C 185.828125 84.300781 185.402344 85.878906 185.402344 85.882812 C 185.3125 86.160156 185.175781 86.429688 184.980469 86.671875 C 184.179688 87.652344 182.738281 87.800781 181.753906 87.003906 C 181.71875 86.972656 168.945312 76.503906 160.414062 77.753906 C 158.394531 78.050781 156.667969 78.714844 155.277344 79.625 C 153.773438 80.617188 152.648438 81.898438 151.964844 83.324219 C 151.304688 84.707031 151.054688 86.234375 151.277344 87.761719 C 151.445312 88.902344 151.871094 90.039062 152.578125 91.113281 Z M 175.046875 100.136719 C 173.207031 100.242188 153.71875 101.183594 148.753906 93.628906 C 147.65625 91.957031 146.992188 90.191406 146.734375 88.429688 C 146.378906 85.996094 146.777344 83.554688 147.835938 81.351562 C 148.875 79.1875 150.546875 77.261719 152.765625 75.800781 C 154.710938 74.523438 157.0625 73.605469 159.75 73.210938 C 167.964844 72.007812 178.46875 78.875 182.726562 81.984375 C 183.976562 80.824219 186.058594 79.726562 189.453125 79.789062 C 193.183594 79.859375 194.890625 81.386719 195.652344 83.007812 C 203.667969 79.132812 226.109375 69.695312 230.476562 83.175781 C 235.855469 99.789062 202.453125 101.792969 202.359375 101.796875 C 202.242188 101.804688 202.128906 101.804688 202.015625 101.792969 Z M 175.046875 100.136719 " fill-opacity="1" fill-rule="nonzero"/><path fill="#3c2732" d="M 181.558594 83.40625 C 182.320312 82.394531 183.761719 82.191406 184.769531 82.957031 C 185.78125 83.71875 185.984375 85.160156 185.21875 86.171875 C 185.203125 86.191406 179.789062 93.265625 184.441406 94.511719 C 186.777344 95.136719 189.027344 95.3125 190.773438 94.957031 C 191.710938 94.765625 192.460938 94.425781 192.925781 93.933594 C 193.308594 93.53125 193.519531 92.941406 193.492188 92.144531 C 193.453125 90.988281 192.960938 89.492188 191.890625 87.605469 C 191.265625 86.507812 191.652344 85.105469 192.753906 84.480469 C 193.855469 83.855469 195.253906 84.242188 195.878906 85.34375 C 197.332031 87.90625 198.003906 90.117188 198.070312 91.980469 C 198.144531 94.109375 197.46875 95.804688 196.246094 97.097656 C 195.109375 98.296875 193.53125 99.066406 191.691406 99.445312 C 189.234375 99.949219 186.242188 99.746094 183.253906 98.949219 C 171.929688 95.910156 181.53125 83.441406 181.558594 83.40625 Z M 181.558594 83.40625 " fill-opacity="1" fill-rule="nonzero"/><path fill="#3c2732" d="M 181.585938 89.128906 C 182.601562 89.886719 182.8125 91.328125 182.050781 92.34375 C 181.292969 93.359375 179.855469 93.570312 178.839844 92.8125 C 178.796875 92.78125 164.683594 82.070312 157.898438 89.335938 C 157.035156 90.261719 155.585938 90.316406 154.65625 89.453125 C 153.730469 88.589844 153.679688 87.140625 154.542969 86.210938 C 164.175781 75.890625 181.535156 89.09375 181.585938 89.128906 Z M 181.585938 89.128906 " fill-opacity="1" fill-rule="nonzero"/><path fill="#3c2732" d="M 196.664062 93.503906 C 195.507812 94.019531 194.152344 93.5 193.636719 92.34375 C 193.121094 91.191406 193.640625 89.835938 194.792969 89.320312 C 194.878906 89.28125 225.003906 75.539062 223.261719 88.960938 C 223.101562 90.214844 221.957031 91.105469 220.703125 90.945312 C 219.449219 90.785156 218.558594 89.640625 218.71875 88.386719 C 219.390625 83.222656 196.726562 93.472656 196.664062 93.503906 Z M 196.664062 93.503906 " fill-opacity="1" fill-rule="nonzero"/><path fill="#3c2732" d="M 190.445312 95.738281 C 190.488281 97 189.5 98.0625 188.234375 98.105469 C 186.972656 98.152344 185.910156 97.164062 185.867188 95.898438 L 185.691406 91.191406 C 185.648438 89.925781 186.636719 88.863281 187.898438 88.820312 C 189.164062 88.777344 190.226562 89.765625 190.269531 91.027344 Z M 190.445312 95.738281 " fill-opacity="1" fill-rule="nonzero"/><g fill="#3c2732" fill-opacity="1"><g transform="translate(92.535294, 219.286157)"><g><path d="M 9.28125 -5.65625 L 9.90625 -5.65625 C 10.550781 -5.65625 10.988281 -5.773438 11.21875 -6.015625 C 11.445312 -6.265625 11.5625 -6.90625 11.5625 -7.9375 L 11.5625 -35.28125 C 11.5625 -36.34375 11.445312 -37 11.21875 -37.25 C 10.988281 -37.5 10.519531 -37.625 9.8125 -37.625 L 9.28125 -37.625 Z M 10.921875 -43.28125 C 14.335938 -43.28125 16.523438 -42.765625 17.484375 -41.734375 C 18.472656 -40.734375 18.96875 -38.316406 18.96875 -34.484375 L 18.96875 -8.84375 C 18.96875 -4.9375 18.472656 -2.488281 17.484375 -1.5 C 16.523438 -0.5 14.359375 0 10.984375 0 L 1.859375 0 L 1.859375 -43.28125 Z M 10.921875 -43.28125 "/></g></g></g><g fill="#3c2732" fill-opacity="1"><g transform="translate(112.94384, 219.286157)"><g><path d="M 13.703125 -43.28125 L 13.703125 -37.625 L 9.28125 -37.625 L 9.28125 -26.59375 L 13.703125 -26.59375 L 13.703125 -20.890625 L 9.28125 -20.890625 L 9.28125 -5.703125 L 13.703125 -5.703125 L 13.703125 0 L 1.859375 0 L 1.859375 -43.28125 Z M 13.703125 -43.28125 "/></g></g></g><g fill="#3c2732" fill-opacity="1"><g transform="translate(128.07706, 219.286157)"><g><path d="M 15.078125 -43.28125 L 15.078125 -37.515625 L 11.453125 -37.515625 L 11.453125 0 L 4.046875 0 L 4.046875 -37.515625 L 0.421875 -37.515625 L 0.421875 -43.28125 Z M 15.078125 -43.28125 "/></g></g></g><g fill="#3c2732" fill-opacity="1"><g transform="translate(143.423424, 219.286157)"><g><path d="M 13.703125 -43.28125 L 13.703125 -37.625 L 9.28125 -37.625 L 9.28125 -26.59375 L 13.703125 -26.59375 L 13.703125 -20.890625 L 9.28125 -20.890625 L 9.28125 -5.703125 L 13.703125 -5.703125 L 13.703125 0 L 1.859375 0 L 1.859375 -43.28125 Z M 13.703125 -43.28125 "/></g></g></g><g fill="#3c2732" fill-opacity="1"><g transform="translate(158.556643, 219.286157)"><g><path d="M 18.703125 -28.515625 L 11.296875 -28.515625 L 11.296875 -35.921875 C 11.296875 -37.160156 10.890625 -37.78125 10.078125 -37.78125 C 9.328125 -37.78125 8.953125 -37.160156 8.953125 -35.921875 L 8.953125 -7.296875 C 8.953125 -6.085938 9.363281 -5.484375 10.1875 -5.484375 C 10.601562 -5.484375 10.890625 -5.613281 11.046875 -5.875 C 11.210938 -6.144531 11.296875 -6.617188 11.296875 -7.296875 L 11.296875 -18.328125 L 18.703125 -18.328125 L 18.703125 -8.375 C 18.703125 -4.601562 18.1875 -2.203125 17.15625 -1.171875 C 16.125 -0.210938 13.816406 0.265625 10.234375 0.265625 C 6.503906 0.265625 4.140625 -0.210938 3.140625 -1.171875 C 2.109375 -2.203125 1.59375 -4.601562 1.59375 -8.375 L 1.59375 -34.90625 C 1.59375 -38.75 2.09375 -41.148438 3.09375 -42.109375 C 4.082031 -43.066406 6.425781 -43.546875 10.125 -43.546875 C 13.851562 -43.546875 16.21875 -43.046875 17.21875 -42.046875 C 18.207031 -41.054688 18.703125 -38.675781 18.703125 -34.90625 Z M 18.703125 -28.515625 "/></g></g></g><g fill="#3c2732" fill-opacity="1"><g transform="translate(178.379043, 219.286157)"><g><path d="M 15.078125 -43.28125 L 15.078125 -37.515625 L 11.453125 -37.515625 L 11.453125 0 L 4.046875 0 L 4.046875 -37.515625 L 0.421875 -37.515625 L 0.421875 -43.28125 Z M 15.078125 -43.28125 "/></g></g></g><g fill="#3c2732" fill-opacity="1"><g transform="translate(193.725406, 219.286157)"><g><path d="M 9.28125 -43.28125 L 9.28125 0 L 1.859375 0 L 1.859375 -43.28125 Z M 9.28125 -43.28125 "/></g></g></g><g fill="#3c2732" fill-opacity="1"><g transform="translate(204.595741, 219.286157)"><g><path d="M 7.5625 -43.28125 L 9.171875 -13.96875 L 9.4375 -13.96875 L 11.25 -43.28125 L 18.234375 -43.28125 L 13.59375 0 L 5.0625 0 L 0.421875 -43.28125 Z M 7.5625 -43.28125 "/></g></g></g><g fill="#3c2732" fill-opacity="1"><g transform="translate(223.085981, 219.286157)"><g><path d="M 13.703125 -43.28125 L 13.703125 -37.625 L 9.28125 -37.625 L 9.28125 -26.59375 L 13.703125 -26.59375 L 13.703125 -20.890625 L 9.28125 -20.890625 L 9.28125 -5.703125 L 13.703125 -5.703125 L 13.703125 0 L 1.859375 0 L 1.859375 -43.28125 Z M 13.703125 -43.28125 "/></g></g></g><g fill="#3c2732" fill-opacity="1"><g transform="translate(238.219194, 219.286157)"><g/></g></g><g fill="#3c2732" fill-opacity="1"><g transform="translate(246.265351, 219.286157)"><g><path d="M 13.703125 -43.28125 L 13.703125 -37.625 L 9.28125 -37.625 L 9.28125 -26.59375 L 13.703125 -26.59375 L 13.703125 -20.890625 L 9.28125 -20.890625 L 9.28125 -5.703125 L 13.703125 -5.703125 L 13.703125 0 L 1.859375 0 L 1.859375 -43.28125 Z M 13.703125 -43.28125 "/></g></g></g><g fill="#3c2732" fill-opacity="1"><g transform="translate(261.398564, 219.286157)"><g><path d="M 8.46875 -43.28125 L 12.53125 -21.6875 L 12.84375 -21.6875 L 12.734375 -43.28125 L 19.140625 -43.28125 L 19.140625 0 L 12.578125 0 L 8.46875 -22.171875 L 8.15625 -22.171875 L 8.3125 0 L 1.859375 0 L 1.859375 -43.28125 Z M 8.46875 -43.28125 "/></g></g></g><g fill="#3c2732" fill-opacity="1"><g transform="translate(132.719308, 282.677849)"><g><path d="M 18.703125 -28.515625 L 11.296875 -28.515625 L 11.296875 -35.921875 C 11.296875 -37.160156 10.890625 -37.78125 10.078125 -37.78125 C 9.328125 -37.78125 8.953125 -37.160156 8.953125 -35.921875 L 8.953125 -7.296875 C 8.953125 -6.085938 9.363281 -5.484375 10.1875 -5.484375 C 10.601562 -5.484375 10.890625 -5.613281 11.046875 -5.875 C 11.210938 -6.144531 11.296875 -6.617188 11.296875 -7.296875 L 11.296875 -18.328125 L 18.703125 -18.328125 L 18.703125 -8.375 C 18.703125 -4.601562 18.1875 -2.203125 17.15625 -1.171875 C 16.125 -0.210938 13.816406 0.265625 10.234375 0.265625 C 6.503906 0.265625 4.140625 -0.210938 3.140625 -1.171875 C 2.109375 -2.203125 1.59375 -4.601562 1.59375 -8.375 L 1.59375 -34.90625 C 1.59375 -38.75 2.09375 -41.148438 3.09375 -42.109375 C 4.082031 -43.066406 6.425781 -43.546875 10.125 -43.546875 C 13.851562 -43.546875 16.21875 -43.046875 17.21875 -42.046875 C 18.207031 -41.054688 18.703125 -38.675781 18.703125 -34.90625 Z M 18.703125 -28.515625 "/></g></g></g><g fill="#3c2732" fill-opacity="1"><g transform="translate(152.541707, 282.677849)"><g><path d="M 9.28125 -43.28125 L 9.28125 -5.703125 L 13.703125 -5.703125 L 13.703125 0 L 1.859375 0 L 1.859375 -43.28125 Z M 9.28125 -43.28125 "/></g></g></g><g fill="#3c2732" fill-opacity="1"><g transform="translate(166.715776, 282.677849)"><g><path d="M 8.796875 -14.96875 L 11.296875 -14.96875 L 10.1875 -34.703125 L 9.96875 -34.703125 Z M 14.96875 -43.28125 L 19.34375 0 L 12.15625 0 L 11.625 -9.21875 L 8.53125 -9.21875 L 8 0 L 0.859375 0 L 5.109375 -43.28125 Z M 14.96875 -43.28125 "/></g></g></g><g fill="#3c2732" fill-opacity="1"><g transform="translate(186.857892, 282.677849)"><g><path d="M 18.59375 -28.359375 L 11.25 -28.359375 L 11.25 -35.96875 C 11.25 -37.175781 10.835938 -37.78125 10.015625 -37.78125 C 9.628906 -37.78125 9.351562 -37.644531 9.1875 -37.375 C 9.03125 -37.113281 8.953125 -36.644531 8.953125 -35.96875 L 8.953125 -29.265625 C 8.953125 -28.484375 9.066406 -27.921875 9.296875 -27.578125 C 9.523438 -27.242188 9.960938 -26.878906 10.609375 -26.484375 L 15.140625 -23.875 C 16.378906 -23.164062 17.265625 -22.332031 17.796875 -21.375 C 18.328125 -20.414062 18.59375 -19.066406 18.59375 -17.328125 L 18.59375 -8.3125 C 18.59375 -4.40625 18.097656 -2.007812 17.109375 -1.125 C 16.078125 -0.195312 13.710938 0.265625 10.015625 0.265625 C 6.359375 0.265625 4.03125 -0.210938 3.03125 -1.171875 C 2.007812 -2.203125 1.5 -4.582031 1.5 -8.3125 L 1.5 -17.859375 L 8.953125 -17.859375 L 8.953125 -7.296875 C 8.953125 -6.054688 9.363281 -5.4375 10.1875 -5.4375 C 10.894531 -5.4375 11.25 -6.054688 11.25 -7.296875 L 11.25 -16.46875 C 11.25 -17.25 11.140625 -17.796875 10.921875 -18.109375 C 10.710938 -18.429688 10.269531 -18.789062 9.59375 -19.1875 L 4.84375 -21.953125 C 3.632812 -22.671875 2.773438 -23.523438 2.265625 -24.515625 C 1.753906 -25.515625 1.5 -26.921875 1.5 -28.734375 L 1.5 -34.90625 C 1.5 -38.601562 2.007812 -40.96875 3.03125 -42 C 4.0625 -43.03125 6.410156 -43.546875 10.078125 -43.546875 C 13.703125 -43.546875 16.03125 -43.066406 17.0625 -42.109375 C 18.082031 -41.148438 18.59375 -38.75 18.59375 -34.90625 Z M 18.59375 -28.359375 "/></g></g></g><g fill="#3c2732" fill-opacity="1"><g transform="translate(206.893435, 282.677849)"><g><path d="M 13.703125 -43.28125 L 13.703125 -37.625 L 9.28125 -37.625 L 9.28125 -26.59375 L 13.703125 -26.59375 L 13.703125 -20.890625 L 9.28125 -20.890625 L 9.28125 -5.703125 L 13.703125 -5.703125 L 13.703125 0 L 1.859375 0 L 1.859375 -43.28125 Z M 13.703125 -43.28125 "/></g></g></g><g fill="#3c2732" fill-opacity="1"><g transform="translate(222.026655, 282.677849)"><g><path d="M 18.59375 -28.359375 L 11.25 -28.359375 L 11.25 -35.96875 C 11.25 -37.175781 10.835938 -37.78125 10.015625 -37.78125 C 9.628906 -37.78125 9.351562 -37.644531 9.1875 -37.375 C 9.03125 -37.113281 8.953125 -36.644531 8.953125 -35.96875 L 8.953125 -29.265625 C 8.953125 -28.484375 9.066406 -27.921875 9.296875 -27.578125 C 9.523438 -27.242188 9.960938 -26.878906 10.609375 -26.484375 L 15.140625 -23.875 C 16.378906 -23.164062 17.265625 -22.332031 17.796875 -21.375 C 18.328125 -20.414062 18.59375 -19.066406 18.59375 -17.328125 L 18.59375 -8.3125 C 18.59375 -4.40625 18.097656 -2.007812 17.109375 -1.125 C 16.078125 -0.195312 13.710938 0.265625 10.015625 0.265625 C 6.359375 0.265625 4.03125 -0.210938 3.03125 -1.171875 C 2.007812 -2.203125 1.5 -4.582031 1.5 -8.3125 L 1.5 -17.859375 L 8.953125 -17.859375 L 8.953125 -7.296875 C 8.953125 -6.054688 9.363281 -5.4375 10.1875 -5.4375 C 10.894531 -5.4375 11.25 -6.054688 11.25 -7.296875 L 11.25 -16.46875 C 11.25 -17.25 11.140625 -17.796875 10.921875 -18.109375 C 10.710938 -18.429688 10.269531 -18.789062 9.59375 -19.1875 L 4.84375 -21.953125 C 3.632812 -22.671875 2.773438 -23.523438 2.265625 -24.515625 C 1.753906 -25.515625 1.5 -26.921875 1.5 -28.734375 L 1.5 -34.90625 C 1.5 -38.601562 2.007812 -40.96875 3.03125 -42 C 4.0625 -43.03125 6.410156 -43.546875 10.078125 -43.546875 C 13.703125 -43.546875 16.03125 -43.066406 17.0625 -42.109375 C 18.082031 -41.148438 18.59375 -38.75 18.59375 -34.90625 Z M 18.59375 -28.359375 "/></g></g></g><g fill="#a27e4d" fill-opacity="1"><g transform="translate(68.944973, 302.634825)"><g><path d="M 0.6875 -7.3125 L 5.5 -7.3125 L 5.5 -6.421875 L 1.75 -6.421875 L 1.75 -4.109375 L 4.546875 -4.109375 L 4.546875 -3.21875 L 1.75 -3.21875 L 1.75 -0.890625 L 5.5 -0.890625 L 5.5 0 L 0.6875 0 Z M 0.6875 -7.3125 "/></g></g></g><g fill="#a27e4d" fill-opacity="1"><g transform="translate(79.917934, 302.634825)"><g><path d="M 0.6875 -7.3125 L 1.75 -7.3125 L 1.75 -0.890625 L 5.453125 -0.890625 L 5.453125 0 L 0.6875 0 Z M 0.6875 -7.3125 "/></g></g></g><g fill="#a27e4d" fill-opacity="1"><g transform="translate(90.681834, 302.634825)"><g/></g></g><g fill="#a27e4d" fill-opacity="1"><g transform="translate(99.61294, 302.634825)"><g><path d="M 0.46875 -7.3125 L 4.171875 -7.3125 C 4.878906 -7.3125 5.4375 -7.132812 5.84375 -6.78125 C 6.25 -6.4375 6.453125 -5.941406 6.453125 -5.296875 C 6.453125 -4.992188 6.382812 -4.707031 6.25 -4.4375 C 6.113281 -4.175781 5.914062 -3.96875 5.65625 -3.8125 C 6.007812 -3.664062 6.269531 -3.460938 6.4375 -3.203125 C 6.601562 -2.941406 6.6875 -2.601562 6.6875 -2.1875 C 6.6875 -1.738281 6.582031 -1.347656 6.375 -1.015625 C 6.164062 -0.679688 5.882812 -0.425781 5.53125 -0.25 C 5.175781 -0.0820312 4.785156 0 4.359375 0 L 0.46875 0 Z M 3.765625 -4.421875 C 4.304688 -4.421875 4.578125 -4.675781 4.578125 -5.1875 C 4.578125 -5.46875 4.507812 -5.660156 4.375 -5.765625 C 4.238281 -5.878906 4.023438 -5.9375 3.734375 -5.9375 L 2.328125 -5.9375 L 2.328125 -4.421875 Z M 3.890625 -1.375 C 4.203125 -1.375 4.429688 -1.429688 4.578125 -1.546875 C 4.734375 -1.671875 4.8125 -1.882812 4.8125 -2.1875 C 4.8125 -2.488281 4.726562 -2.707031 4.5625 -2.84375 C 4.40625 -2.976562 4.164062 -3.046875 3.84375 -3.046875 L 2.328125 -3.046875 L 2.328125 -1.375 Z M 3.890625 -1.375 "/></g></g></g><g fill="#a27e4d" fill-opacity="1"><g transform="translate(111.610307, 302.634825)"><g><path d="M 3.75 0.15625 C 2.644531 0.15625 1.8125 -0.132812 1.25 -0.71875 C 0.695312 -1.3125 0.421875 -2.09375 0.421875 -3.0625 L 0.421875 -7.3125 L 2.265625 -7.3125 L 2.265625 -3.046875 C 2.265625 -2.554688 2.394531 -2.1875 2.65625 -1.9375 C 2.925781 -1.6875 3.289062 -1.5625 3.75 -1.5625 C 4.207031 -1.5625 4.566406 -1.6875 4.828125 -1.9375 C 5.085938 -2.1875 5.21875 -2.554688 5.21875 -3.046875 L 5.21875 -7.3125 L 7.0625 -7.3125 L 7.0625 -3.0625 C 7.0625 -2.09375 6.785156 -1.3125 6.234375 -0.71875 C 5.679688 -0.132812 4.851562 0.15625 3.75 0.15625 Z M 3.75 0.15625 "/></g></g></g><g fill="#a27e4d" fill-opacity="1"><g transform="translate(124.140774, 302.634825)"><g><path d="M 0.46875 -7.3125 L 2.328125 -7.3125 L 2.328125 -1.5625 L 5.5 -1.5625 L 5.5 0 L 0.46875 0 Z M 0.46875 -7.3125 "/></g></g></g><g fill="#a27e4d" fill-opacity="1"><g transform="translate(134.747879, 302.634825)"><g><path d="M 0.46875 -7.3125 L 2.328125 -7.3125 L 2.328125 -1.5625 L 5.5 -1.5625 L 5.5 0 L 0.46875 0 Z M 0.46875 -7.3125 "/></g></g></g><g fill="#a27e4d" fill-opacity="1"><g transform="translate(145.354983, 302.634825)"><g><path d="M 2.96875 -2.78125 L 0.265625 -7.3125 L 2.234375 -7.3125 L 3.890625 -4.484375 L 5.625 -7.3125 L 7.59375 -7.3125 L 4.8125 -2.78125 L 4.8125 0 L 2.96875 0 Z M 2.96875 -2.78125 "/></g></g></g><g fill="#a27e4d" fill-opacity="1"><g transform="translate(158.251318, 302.634825)"><g><path d="M 0.46875 -7.3125 L 2.328125 -7.3125 L 2.328125 0 L 0.46875 0 Z M 0.46875 -7.3125 "/></g></g></g><g fill="#a27e4d" fill-opacity="1"><g transform="translate(166.098795, 302.634825)"><g><path d="M 0.46875 -7.3125 L 2.296875 -7.3125 L 5 -2.96875 L 5 -7.3125 L 6.84375 -7.3125 L 6.84375 0 L 5.03125 0 L 2.328125 -4.359375 L 2.328125 0 L 0.46875 0 Z M 0.46875 -7.3125 "/></g></g></g><g fill="#a27e4d" fill-opacity="1"><g transform="translate(178.462018, 302.634825)"><g><path d="M 4.25 0.15625 C 3.457031 0.15625 2.757812 0.00390625 2.15625 -0.296875 C 1.550781 -0.609375 1.082031 -1.050781 0.75 -1.625 C 0.425781 -2.195312 0.265625 -2.875 0.265625 -3.65625 C 0.265625 -4.425781 0.425781 -5.097656 0.75 -5.671875 C 1.082031 -6.253906 1.550781 -6.695312 2.15625 -7 C 2.757812 -7.3125 3.457031 -7.46875 4.25 -7.46875 C 4.78125 -7.46875 5.25 -7.414062 5.65625 -7.3125 C 6.0625 -7.21875 6.441406 -7.0625 6.796875 -6.84375 L 6.796875 -5.078125 C 6.484375 -5.316406 6.132812 -5.488281 5.75 -5.59375 C 5.363281 -5.707031 4.921875 -5.765625 4.421875 -5.765625 C 3.984375 -5.765625 3.59375 -5.675781 3.25 -5.5 C 2.914062 -5.332031 2.648438 -5.085938 2.453125 -4.765625 C 2.265625 -4.453125 2.171875 -4.082031 2.171875 -3.65625 C 2.171875 -2.988281 2.363281 -2.460938 2.75 -2.078125 C 3.132812 -1.691406 3.660156 -1.5 4.328125 -1.5 C 4.691406 -1.5 5 -1.566406 5.25 -1.703125 L 5.25 -2.875 L 4.140625 -2.875 L 4.140625 -4.171875 L 7.015625 -4.171875 L 7.015625 -0.515625 C 6.265625 -0.0664062 5.34375 0.15625 4.25 0.15625 Z M 4.25 0.15625 "/></g></g></g><g fill="#a27e4d" fill-opacity="1"><g transform="translate(190.783424, 302.634825)"><g/></g></g><g fill="#a27e4d" fill-opacity="1"><g transform="translate(199.39809, 302.634825)"><g><path d="M 0.6875 -7.3125 L 1.75 -7.3125 L 4.359375 -1.609375 L 6.96875 -7.3125 L 8.03125 -7.3125 L 8.03125 0 L 7 0 L 7 -5.203125 L 4.609375 0 L 4.09375 0 L 1.703125 -5.203125 L 1.703125 0 L 0.6875 0 Z M 0.6875 -7.3125 "/></g></g></g><g fill="#a27e4d" fill-opacity="1"><g transform="translate(213.151575, 302.634825)"><g><path d="M 0.6875 -7.3125 L 1.765625 -7.3125 L 1.765625 0 L 0.6875 0 Z M 0.6875 -7.3125 "/></g></g></g><g fill="#a27e4d" fill-opacity="1"><g transform="translate(220.643656, 302.634825)"><g><path d="M 2.71875 0.15625 C 2.289062 0.15625 1.875 0.117188 1.46875 0.046875 C 1.0625 -0.0234375 0.726562 -0.125 0.46875 -0.25 L 0.46875 -1.21875 C 1.132812 -0.90625 1.859375 -0.75 2.640625 -0.75 C 3.722656 -0.75 4.265625 -1.113281 4.265625 -1.84375 C 4.265625 -2.09375 4.207031 -2.296875 4.09375 -2.453125 C 3.976562 -2.609375 3.804688 -2.742188 3.578125 -2.859375 C 3.359375 -2.972656 2.992188 -3.128906 2.484375 -3.328125 C 1.796875 -3.609375 1.296875 -3.914062 0.984375 -4.25 C 0.679688 -4.582031 0.53125 -5.003906 0.53125 -5.515625 C 0.53125 -5.898438 0.632812 -6.238281 0.84375 -6.53125 C 1.050781 -6.832031 1.34375 -7.0625 1.71875 -7.21875 C 2.101562 -7.382812 2.539062 -7.46875 3.03125 -7.46875 C 3.425781 -7.46875 3.78125 -7.4375 4.09375 -7.375 C 4.414062 -7.3125 4.734375 -7.210938 5.046875 -7.078125 L 5.046875 -6.15625 C 4.441406 -6.425781 3.828125 -6.5625 3.203125 -6.5625 C 2.703125 -6.5625 2.316406 -6.46875 2.046875 -6.28125 C 1.785156 -6.101562 1.65625 -5.847656 1.65625 -5.515625 C 1.65625 -5.285156 1.710938 -5.09375 1.828125 -4.9375 C 1.941406 -4.78125 2.113281 -4.640625 2.34375 -4.515625 C 2.570312 -4.390625 2.90625 -4.238281 3.34375 -4.0625 C 3.84375 -3.863281 4.234375 -3.671875 4.515625 -3.484375 C 4.804688 -3.304688 5.023438 -3.082031 5.171875 -2.8125 C 5.328125 -2.550781 5.40625 -2.226562 5.40625 -1.84375 C 5.40625 -1.207031 5.175781 -0.710938 4.71875 -0.359375 C 4.269531 -0.015625 3.601562 0.15625 2.71875 0.15625 Z M 2.71875 0.15625 "/></g></g></g><g fill="#a27e4d" fill-opacity="1"><g transform="translate(231.564351, 302.634825)"><g><path d="M 2.53125 -6.421875 L 0.265625 -6.421875 L 0.265625 -7.3125 L 5.890625 -7.3125 L 5.890625 -6.421875 L 3.609375 -6.421875 L 3.609375 0 L 2.53125 0 Z M 2.53125 -6.421875 "/></g></g></g><g fill="#a27e4d" fill-opacity="1"><g transform="translate(242.756821, 302.634825)"><g><path d="M 0.6875 -7.3125 L 5.5 -7.3125 L 5.5 -6.421875 L 1.75 -6.421875 L 1.75 -4.109375 L 4.546875 -4.109375 L 4.546875 -3.21875 L 1.75 -3.21875 L 1.75 -0.890625 L 5.5 -0.890625 L 5.5 0 L 0.6875 0 Z M 0.6875 -7.3125 "/></g></g></g><g fill="#a27e4d" fill-opacity="1"><g transform="translate(253.729782, 302.634825)"><g><path d="M 0.6875 -7.3125 L 3.625 -7.3125 C 4.40625 -7.3125 5.003906 -7.125 5.421875 -6.75 C 5.835938 -6.375 6.046875 -5.820312 6.046875 -5.09375 C 6.046875 -4.5625 5.898438 -4.109375 5.609375 -3.734375 C 5.328125 -3.359375 4.925781 -3.101562 4.40625 -2.96875 L 6.015625 0 L 4.90625 0 L 3.34375 -2.890625 L 1.75 -2.890625 L 1.75 0 L 0.6875 0 Z M 3.4375 -3.796875 C 3.90625 -3.796875 4.273438 -3.90625 4.546875 -4.125 C 4.828125 -4.34375 4.96875 -4.664062 4.96875 -5.09375 C 4.96875 -5.570312 4.832031 -5.910156 4.5625 -6.109375 C 4.300781 -6.316406 3.925781 -6.421875 3.4375 -6.421875 L 1.75 -6.421875 L 1.75 -3.796875 Z M 3.4375 -3.796875 "/></g></g></g><g fill="#a27e4d" fill-opacity="1"><g transform="translate(265.298567, 302.634825)"><g><path d="M 0.6875 -7.3125 L 1.765625 -7.3125 L 1.765625 0 L 0.6875 0 Z M 0.6875 -7.3125 "/></g></g></g><g fill="#a27e4d" fill-opacity="1"><g transform="translate(272.790648, 302.634825)"><g><path d="M 4.328125 0.15625 C 3.597656 0.15625 2.9375 0 2.34375 -0.3125 C 1.757812 -0.632812 1.300781 -1.082031 0.96875 -1.65625 C 0.632812 -2.238281 0.46875 -2.90625 0.46875 -3.65625 C 0.46875 -4.40625 0.632812 -5.066406 0.96875 -5.640625 C 1.300781 -6.222656 1.757812 -6.671875 2.34375 -6.984375 C 2.9375 -7.304688 3.597656 -7.46875 4.328125 -7.46875 C 5.046875 -7.46875 5.695312 -7.304688 6.28125 -6.984375 C 6.875 -6.671875 7.335938 -6.222656 7.671875 -5.640625 C 8.003906 -5.066406 8.171875 -4.40625 8.171875 -3.65625 C 8.171875 -2.90625 8.003906 -2.238281 7.671875 -1.65625 C 7.335938 -1.082031 6.875 -0.632812 6.28125 -0.3125 C 5.695312 0 5.046875 0.15625 4.328125 0.15625 Z M 4.328125 -0.8125 C 4.835938 -0.8125 5.300781 -0.925781 5.71875 -1.15625 C 6.144531 -1.382812 6.476562 -1.710938 6.71875 -2.140625 C 6.96875 -2.578125 7.09375 -3.082031 7.09375 -3.65625 C 7.09375 -4.21875 6.972656 -4.710938 6.734375 -5.140625 C 6.492188 -5.578125 6.164062 -5.910156 5.75 -6.140625 C 5.332031 -6.367188 4.863281 -6.484375 4.34375 -6.484375 C 3.820312 -6.484375 3.347656 -6.367188 2.921875 -6.140625 C 2.503906 -5.910156 2.171875 -5.578125 1.921875 -5.140625 C 1.671875 -4.710938 1.546875 -4.21875 1.546875 -3.65625 C 1.546875 -3.082031 1.664062 -2.578125 1.90625 -2.140625 C 2.15625 -1.710938 2.488281 -1.382812 2.90625 -1.15625 C 3.332031 -0.925781 3.804688 -0.8125 4.328125 -0.8125 Z M 4.328125 -0.8125 "/></g></g></g><g fill="#a27e4d" fill-opacity="1"><g transform="translate(286.48142, 302.634825)"><g><path d="M 2.71875 0.15625 C 2.289062 0.15625 1.875 0.117188 1.46875 0.046875 C 1.0625 -0.0234375 0.726562 -0.125 0.46875 -0.25 L 0.46875 -1.21875 C 1.132812 -0.90625 1.859375 -0.75 2.640625 -0.75 C 3.722656 -0.75 4.265625 -1.113281 4.265625 -1.84375 C 4.265625 -2.09375 4.207031 -2.296875 4.09375 -2.453125 C 3.976562 -2.609375 3.804688 -2.742188 3.578125 -2.859375 C 3.359375 -2.972656 2.992188 -3.128906 2.484375 -3.328125 C 1.796875 -3.609375 1.296875 -3.914062 0.984375 -4.25 C 0.679688 -4.582031 0.53125 -5.003906 0.53125 -5.515625 C 0.53125 -5.898438 0.632812 -6.238281 0.84375 -6.53125 C 1.050781 -6.832031 1.34375 -7.0625 1.71875 -7.21875 C 2.101562 -7.382812 2.539062 -7.46875 3.03125 -7.46875 C 3.425781 -7.46875 3.78125 -7.4375 4.09375 -7.375 C 4.414062 -7.3125 4.734375 -7.210938 5.046875 -7.078125 L 5.046875 -6.15625 C 4.441406 -6.425781 3.828125 -6.5625 3.203125 -6.5625 C 2.703125 -6.5625 2.316406 -6.46875 2.046875 -6.28125 C 1.785156 -6.101562 1.65625 -5.847656 1.65625 -5.515625 C 1.65625 -5.285156 1.710938 -5.09375 1.828125 -4.9375 C 1.941406 -4.78125 2.113281 -4.640625 2.34375 -4.515625 C 2.570312 -4.390625 2.90625 -4.238281 3.34375 -4.0625 C 3.84375 -3.863281 4.234375 -3.671875 4.515625 -3.484375 C 4.804688 -3.304688 5.023438 -3.082031 5.171875 -2.8125 C 5.328125 -2.550781 5.40625 -2.226562 5.40625 -1.84375 C 5.40625 -1.207031 5.175781 -0.710938 4.71875 -0.359375 C 4.269531 -0.015625 3.601562 0.15625 2.71875 0.15625 Z M 2.71875 0.15625 "/></g></g></g><g fill="#a27e4d" fill-opacity="1"><g transform="translate(297.402115, 302.634825)"><g><path d="M 4.328125 0.15625 C 3.597656 0.15625 2.9375 0 2.34375 -0.3125 C 1.757812 -0.632812 1.300781 -1.082031 0.96875 -1.65625 C 0.632812 -2.238281 0.46875 -2.90625 0.46875 -3.65625 C 0.46875 -4.40625 0.632812 -5.066406 0.96875 -5.640625 C 1.300781 -6.222656 1.757812 -6.671875 2.34375 -6.984375 C 2.9375 -7.304688 3.597656 -7.46875 4.328125 -7.46875 C 5.046875 -7.46875 5.695312 -7.304688 6.28125 -6.984375 C 6.875 -6.671875 7.335938 -6.222656 7.671875 -5.640625 C 8.003906 -5.066406 8.171875 -4.40625 8.171875 -3.65625 C 8.171875 -2.90625 8.003906 -2.238281 7.671875 -1.65625 C 7.335938 -1.082031 6.875 -0.632812 6.28125 -0.3125 C 5.695312 0 5.046875 0.15625 4.328125 0.15625 Z M 4.328125 -0.8125 C 4.835938 -0.8125 5.300781 -0.925781 5.71875 -1.15625 C 6.144531 -1.382812 6.476562 -1.710938 6.71875 -2.140625 C 6.96875 -2.578125 7.09375 -3.082031 7.09375 -3.65625 C 7.09375 -4.21875 6.972656 -4.710938 6.734375 -5.140625 C 6.492188 -5.578125 6.164062 -5.910156 5.75 -6.140625 C 5.332031 -6.367188 4.863281 -6.484375 4.34375 -6.484375 C 3.820312 -6.484375 3.347656 -6.367188 2.921875 -6.140625 C 2.503906 -5.910156 2.171875 -5.578125 1.921875 -5.140625 C 1.671875 -4.710938 1.546875 -4.21875 1.546875 -3.65625 C 1.546875 -3.082031 1.664062 -2.578125 1.90625 -2.140625 C 2.15625 -1.710938 2.488281 -1.382812 2.90625 -1.15625 C 3.332031 -0.925781 3.804688 -0.8125 4.328125 -0.8125 Z M 4.328125 -0.8125 "/></g></g></g></svg>